<?xml version="1.0" encoding="UTF-8" standalone="no"?><svg xmlns="http://www.w3.org/2000/svg" xmlns:xlink="http://www.w3.org/1999/xlink" contentScriptType="application/ecmascript" contentStyleType="text/css" height="1155px" preserveAspectRatio="none" style="width:1244px;height:1155px;" version="1.1" viewBox="0 0 1244 1155" width="1244px" zoomAndPan="magnify"><defs><filter height="300%" id="fypjesf" width="300%" x="-1" y="-1"><feGaussianBlur result="blurOut" stdDeviation="2.0"/><feColorMatrix in="blurOut" result="blurOut2" type="matrix" values="0 0 0 0 0 0 0 0 0 0 0 0 0 0 0 0 0 0 .4 0"/><feOffset dx="4.0" dy="4.0" in="blurOut2" result="blurOut3"/><feBlend in="SourceGraphic" in2="blurOut3" mode="normal"/></filter></defs><g><polygon fill="#ECECEC" filter="url(#fypjesf)" points="1002.5,22,1002.5,47.3105,1235.5,47.3105,1235.5,32,1225.5,22,1002.5,22" style="stroke: #383838; stroke-width: 1.0;"/><line style="stroke: #383838; stroke-width: 1.0;" x1="1225.5" x2="1225.5" y1="22" y2="32"/><line style="stroke: #383838; stroke-width: 1.0;" x1="1235.5" x2="1225.5" y1="32" y2="32"/><text fill="#000000" font-family="sans-serif" font-size="13" lengthAdjust="spacingAndGlyphs" textLength="212" x="1008.5" y="39.5684">Tous les attributs sont NOT NULL</text><!--class Logiciel--><rect fill="#F8F8F8" filter="url(#fypjesf)" height="78.998" style="stroke: #383838; stroke-width: 1.5;" width="130" x="457" y="160"/><text fill="#000000" font-family="sans-serif" font-size="12" font-style="italic" lengthAdjust="spacingAndGlyphs" textLength="42" x="501" y="176.6016">Logiciel</text><line style="stroke: #383838; stroke-width: 1.5;" x1="458" x2="586" y1="184.1328" y2="184.1328"/><text fill="#000000" font-family="sans-serif" font-size="11" lengthAdjust="spacingAndGlyphs" textLength="118" x="463" y="198.7676">NomDeve: string {key}</text><text fill="#000000" font-family="sans-serif" font-size="11" lengthAdjust="spacingAndGlyphs" textLength="92" x="463" y="211.7227">Nom: string {key}</text><text fill="#000000" font-family="sans-serif" font-size="11" lengthAdjust="spacingAndGlyphs" textLength="111" x="463" y="224.6777">DateLancement: date</text><line style="stroke: #383838; stroke-width: 1.5;" x1="458" x2="586" y1="230.998" y2="230.998"/><!--class Version--><rect fill="#F8F8F8" filter="url(#fypjesf)" height="66.043" style="stroke: #383838; stroke-width: 1.5;" width="132" x="547" y="383"/><text fill="#000000" font-family="sans-serif" font-size="12" lengthAdjust="spacingAndGlyphs" textLength="43" x="591.5" y="399.6016">Version</text><line style="stroke: #383838; stroke-width: 1.5;" x1="548" x2="678" y1="407.1328" y2="407.1328"/><text fill="#000000" font-family="sans-serif" font-size="11" lengthAdjust="spacingAndGlyphs" textLength="120" x="553" y="421.7676">Numéro: int {local key}</text><text fill="#000000" font-family="sans-serif" font-size="11" lengthAdjust="spacingAndGlyphs" textLength="120" x="553" y="434.7227">DateDisponibilité: date</text><line style="stroke: #383838; stroke-width: 1.5;" x1="548" x2="678" y1="441.043" y2="441.043"/><!--class Problème--><rect fill="#F8F8F8" filter="url(#fypjesf)" height="66.043" style="stroke: #383838; stroke-width: 1.5;" width="112" x="565" y="674"/><text fill="#000000" font-family="sans-serif" font-size="12" lengthAdjust="spacingAndGlyphs" textLength="55" x="593.5" y="690.6016">Problème</text><line style="stroke: #383838; stroke-width: 1.5;" x1="566" x2="676" y1="698.1328" y2="698.1328"/><text fill="#000000" font-family="sans-serif" font-size="11" lengthAdjust="spacingAndGlyphs" textLength="53" x="571" y="712.7676">Date: date</text><text fill="#000000" font-family="sans-serif" font-size="11" lengthAdjust="spacingAndGlyphs" textLength="100" x="571" y="725.7227">Description: string</text><line style="stroke: #383838; stroke-width: 1.5;" x1="566" x2="676" y1="732.043" y2="732.043"/><!--class Correctif--><rect fill="#F8F8F8" filter="url(#fypjesf)" height="53.0879" style="stroke: #383838; stroke-width: 1.5;" width="65" x="552.5" y="941"/><text fill="#000000" font-family="sans-serif" font-size="12" font-style="italic" lengthAdjust="spacingAndGlyphs" textLength="49" x="560.5" y="957.6016">Correctif</text><line style="stroke: #383838; stroke-width: 1.5;" x1="553.5" x2="616.5" y1="965.1328" y2="965.1328"/><text fill="#000000" font-family="sans-serif" font-size="11" lengthAdjust="spacingAndGlyphs" textLength="53" x="558.5" y="979.7676">Date: date</text><line style="stroke: #383838; stroke-width: 1.5;" x1="553.5" x2="616.5" y1="986.0879" y2="986.0879"/><!--class InstructionTextuelle--><rect fill="#F8F8F8" filter="url(#fypjesf)" height="53.0879" style="stroke: #383838; stroke-width: 1.5;" width="118" x="395" y="1093"/><text fill="#000000" font-family="sans-serif" font-size="12" lengthAdjust="spacingAndGlyphs" textLength="112" x="398" y="1109.6016">InstructionTextuelle</text><line style="stroke: #383838; stroke-width: 1.5;" x1="396" x2="512" y1="1117.1328" y2="1117.1328"/><text fill="#000000" font-family="sans-serif" font-size="11" lengthAdjust="spacingAndGlyphs" textLength="97" x="401" y="1131.7676">Instruction: string</text><line style="stroke: #383838; stroke-width: 1.5;" x1="396" x2="512" y1="1138.0879" y2="1138.0879"/><!--class PatchCorrectif--><rect fill="#F8F8F8" filter="url(#fypjesf)" height="53.0879" style="stroke: #383838; stroke-width: 1.5;" width="96" x="657" y="1093"/><text fill="#000000" font-family="sans-serif" font-size="12" lengthAdjust="spacingAndGlyphs" textLength="80" x="665" y="1109.6016">PatchCorrectif</text><line style="stroke: #383838; stroke-width: 1.5;" x1="658" x2="752" y1="1117.1328" y2="1117.1328"/><text fill="#000000" font-family="sans-serif" font-size="11" lengthAdjust="spacingAndGlyphs" textLength="84" x="663" y="1131.7676">ID: integer {key}</text><line style="stroke: #383838; stroke-width: 1.5;" x1="658" x2="752" y1="1138.0879" y2="1138.0879"/><!--class Personne--><rect fill="#F8F8F8" filter="url(#fypjesf)" height="78.998" style="stroke: #383838; stroke-width: 1.5;" width="119" x="438.5" y="801"/><text fill="#000000" font-family="sans-serif" font-size="12" font-style="italic" lengthAdjust="spacingAndGlyphs" textLength="53" x="471.5" y="817.6016">Personne</text><line style="stroke: #383838; stroke-width: 1.5;" x1="439.5" x2="556.5" y1="825.1328" y2="825.1328"/><text fill="#000000" font-family="sans-serif" font-size="11" lengthAdjust="spacingAndGlyphs" textLength="63" x="444.5" y="839.7676">Nom: string</text><text fill="#000000" font-family="sans-serif" font-size="11" lengthAdjust="spacingAndGlyphs" textLength="79" x="444.5" y="852.7227">Prénom: string</text><text fill="#000000" font-family="sans-serif" font-size="11" lengthAdjust="spacingAndGlyphs" textLength="107" x="444.5" y="865.6777">DateNaissance: date</text><line style="stroke: #383838; stroke-width: 1.5;" x1="439.5" x2="556.5" y1="871.998" y2="871.998"/><!--class Employé--><rect fill="#F8F8F8" filter="url(#fypjesf)" height="53.0879" style="stroke: #383838; stroke-width: 1.5;" width="85" x="298.5" y="941"/><text fill="#000000" font-family="sans-serif" font-size="12" lengthAdjust="spacingAndGlyphs" textLength="49" x="316.5" y="957.6016">Employé</text><line style="stroke: #383838; stroke-width: 1.5;" x1="299.5" x2="382.5" y1="965.1328" y2="965.1328"/><text fill="#000000" font-family="sans-serif" font-size="11" lengthAdjust="spacingAndGlyphs" textLength="73" x="304.5" y="979.7676">Poste: integer</text><line style="stroke: #383838; stroke-width: 1.5;" x1="299.5" x2="382.5" y1="986.0879" y2="986.0879"/><polygon fill="#ECECEC" filter="url(#fypjesf)" points="24.5,828,24.5,853.3105,303.5,853.3105,303.5,838,293.5,828,24.5,828" style="stroke: #383838; stroke-width: 1.0;"/><polygon fill="#ECECEC" points="24.5,828,24.5,853.3105,176.33,853.3105,304.89,941,184.33,853.3105,303.5,853.3105,303.5,838,293.5,828,24.5,828" style="stroke: #383838; stroke-width: 1.0;"/><line style="stroke: #383838; stroke-width: 1.0;" x1="293.5" x2="293.5" y1="828" y2="838"/><line style="stroke: #383838; stroke-width: 1.0;" x1="303.5" x2="293.5" y1="838" y2="838"/><text fill="#000000" font-family="sans-serif" font-size="13" lengthAdjust="spacingAndGlyphs" textLength="258" x="30.5" y="845.5684">{(Nom,Prénom,DateNaissance,Poste) key}</text><!--class Client--><rect fill="#F8F8F8" filter="url(#fypjesf)" height="66.043" style="stroke: #383838; stroke-width: 1.5;" width="141" x="292.5" y="674"/><text fill="#000000" font-family="sans-serif" font-size="12" lengthAdjust="spacingAndGlyphs" textLength="32" x="347" y="690.6016">Client</text><line style="stroke: #383838; stroke-width: 1.5;" x1="293.5" x2="432.5" y1="698.1328" y2="698.1328"/><text fill="#000000" font-family="sans-serif" font-size="11" lengthAdjust="spacingAndGlyphs" textLength="82" x="298.5" y="712.7676">Adresse: string</text><text fill="#000000" font-family="sans-serif" font-size="11" lengthAdjust="spacingAndGlyphs" textLength="129" x="298.5" y="725.7227">Téléphone: integer {key}</text><line style="stroke: #383838; stroke-width: 1.5;" x1="293.5" x2="432.5" y1="732.043" y2="732.043"/><!--class Achat--><rect fill="#F8F8F8" filter="url(#fypjesf)" height="53.0879" style="stroke: #383838; stroke-width: 1.5;" width="65" x="257.5" y="480.5"/><text fill="#000000" font-family="sans-serif" font-size="12" lengthAdjust="spacingAndGlyphs" textLength="32" x="274" y="497.1016">Achat</text><line style="stroke: #383838; stroke-width: 1.5;" x1="258.5" x2="321.5" y1="504.6328" y2="504.6328"/><text fill="#000000" font-family="sans-serif" font-size="11" lengthAdjust="spacingAndGlyphs" textLength="53" x="263.5" y="519.2676">Date: date</text><line style="stroke: #383838; stroke-width: 1.5;" x1="258.5" x2="321.5" y1="525.5879" y2="525.5879"/><polygon fill="#ECECEC" filter="url(#fypjesf)" points="6,479,6,534.9316,188,534.9316,188,489,178,479,6,479" style="stroke: #383838; stroke-width: 1.0;"/><polygon fill="#ECECEC" points="6,479,6,534.9316,188,534.9316,188,511,257.4,507,188,503,188,489,178,479,6,479" style="stroke: #383838; stroke-width: 1.0;"/><line style="stroke: #383838; stroke-width: 1.0;" x1="178" x2="178" y1="479" y2="489"/><line style="stroke: #383838; stroke-width: 1.0;" x1="188" x2="178" y1="489" y2="489"/><text fill="#000000" font-family="sans-serif" font-size="13" lengthAdjust="spacingAndGlyphs" textLength="161" x="12" y="496.5684">{(Client,Logiciel,Date) key</text><text fill="#000000" font-family="sans-serif" font-size="13" lengthAdjust="spacingAndGlyphs" textLength="0" x="16" y="511.8789"/><text fill="#000000" font-family="sans-serif" font-size="13" lengthAdjust="spacingAndGlyphs" textLength="140" x="12" y="527.1895">Date&gt;DateLancement}</text><!--class OS--><rect fill="#F8F8F8" filter="url(#fypjesf)" height="40.1328" style="stroke: #383838; stroke-width: 1.5;" width="21" x="718.5" y="306.5"/><text fill="#000000" font-family="sans-serif" font-size="12" lengthAdjust="spacingAndGlyphs" textLength="15" x="721.5" y="323.1016">OS</text><line style="stroke: #383838; stroke-width: 1.5;" x1="719.5" x2="738.5" y1="330.6328" y2="330.6328"/><line style="stroke: #383838; stroke-width: 1.5;" x1="719.5" x2="738.5" y1="338.6328" y2="338.6328"/><!--class Programme--><rect fill="#F8F8F8" filter="url(#fypjesf)" height="53.0879" style="stroke: #383838; stroke-width: 1.5;" width="76" x="719" y="8"/><text fill="#000000" font-family="sans-serif" font-size="12" font-style="italic" lengthAdjust="spacingAndGlyphs" textLength="67" x="723.5" y="24.6016">Programme</text><line style="stroke: #383838; stroke-width: 1.5;" x1="720" x2="794" y1="32.1328" y2="32.1328"/><text fill="#000000" font-family="sans-serif" font-size="11" lengthAdjust="spacingAndGlyphs" textLength="64" x="725" y="46.7676">Type: string</text><line style="stroke: #383838; stroke-width: 1.5;" x1="720" x2="794" y1="53.0879" y2="53.0879"/><!--class Application--><rect fill="#F8F8F8" filter="url(#fypjesf)" height="40.1328" style="stroke: #383838; stroke-width: 1.5;" width="70" x="863" y="179.5"/><text fill="#000000" font-family="sans-serif" font-size="12" lengthAdjust="spacingAndGlyphs" textLength="64" x="866" y="196.1016">Application</text><line style="stroke: #383838; stroke-width: 1.5;" x1="864" x2="932" y1="203.6328" y2="203.6328"/><line style="stroke: #383838; stroke-width: 1.5;" x1="864" x2="932" y1="211.6328" y2="211.6328"/><!--class Jeu--><rect fill="#F8F8F8" filter="url(#fypjesf)" height="40.1328" style="stroke: #383838; stroke-width: 1.5;" width="24" x="1077" y="179.5"/><text fill="#000000" font-family="sans-serif" font-size="12" lengthAdjust="spacingAndGlyphs" textLength="18" x="1080" y="196.1016">Jeu</text><line style="stroke: #383838; stroke-width: 1.5;" x1="1078" x2="1100" y1="203.6328" y2="203.6328"/><line style="stroke: #383838; stroke-width: 1.5;" x1="1078" x2="1100" y1="211.6328" y2="211.6328"/><!--class Plateforme--><rect fill="#F8F8F8" filter="url(#fypjesf)" height="53.0879" style="stroke: #383838; stroke-width: 1.5;" width="76" x="845" y="300"/><text fill="#000000" font-family="sans-serif" font-size="12" lengthAdjust="spacingAndGlyphs" textLength="62" x="852" y="316.6016">Plateforme</text><line style="stroke: #383838; stroke-width: 1.5;" x1="846" x2="920" y1="324.1328" y2="324.1328"/><text fill="#000000" font-family="sans-serif" font-size="11" lengthAdjust="spacingAndGlyphs" textLength="64" x="851" y="338.7676">Type: string</text><line style="stroke: #383838; stroke-width: 1.5;" x1="846" x2="920" y1="345.0879" y2="345.0879"/><!--class ProgrammeType--><rect fill="#F8F8F8" filter="url(#fypjesf)" height="53.0879" style="stroke: #383838; stroke-width: 1.5;" width="102" x="865" y="8"/><text fill="#000000" font-family="sans-serif" font-size="12" lengthAdjust="spacingAndGlyphs" textLength="96" x="868" y="24.6016">ProgrammeType</text><line style="stroke: #383838; stroke-width: 1.5;" x1="866" x2="966" y1="32.1328" y2="32.1328"/><text fill="#000000" font-family="sans-serif" font-size="11" lengthAdjust="spacingAndGlyphs" textLength="64" x="871" y="46.7676">Type: string</text><line style="stroke: #383838; stroke-width: 1.5;" x1="866" x2="966" y1="53.0879" y2="53.0879"/><ellipse cx="341" cy="840.5" fill="#000000" rx="2" ry="2" style="stroke: none; stroke-width: 1.0;"/><ellipse cx="585" cy="1119.5" fill="#000000" rx="2" ry="2" style="stroke: none; stroke-width: 1.0;"/><ellipse cx="394" cy="507" fill="#000000" rx="2" ry="2" style="stroke: none; stroke-width: 1.0;"/><ellipse cx="685" cy="199.5" fill="#000000" rx="2" ry="2" style="stroke: none; stroke-width: 1.0;"/><ellipse cx="1005" cy="199.5" fill="#000000" rx="2" ry="2" style="stroke: none; stroke-width: 1.0;"/><path d="M357.62,740.17 C351.61,776.06 342.56,830.19 341.18,838.43 " fill="none" style="stroke: #383838; stroke-width: 1.0;"/><path d="M341,842.9 C341,852.37 341,907.54 341,940.88 " fill="none" style="stroke: #383838; stroke-width: 1.0;"/><path d="M418.29,840.5 C384.96,840.5 351.93,840.5 343.22,840.5 " fill="none" style="stroke: #383838; stroke-width: 1.0;"/><polygon fill="none" points="418.31,833.5,438.31,840.5,418.31,847.5,418.31,833.5" style="stroke: #383838; stroke-width: 1.0;"/><polygon fill="#ECECEC" filter="url(#fypjesf)" points="365.25,803.5,365.25,828.5,412.25,828.5,412.25,813.5,402.25,803.5,365.25,803.5" style="stroke: #383838; stroke-width: 1.0;"/><line style="stroke: #383838; stroke-width: 1.0;" x1="402.25" x2="402.25" y1="803.5" y2="813.5"/><line style="stroke: #383838; stroke-width: 1.0;" x1="412.25" x2="402.25" y1="813.5" y2="813.5"/><text fill="#000000" font-family="sans-serif" font-size="13" lengthAdjust="spacingAndGlyphs" textLength="26" x="371.25" y="821.0684">XOR</text><path d="M383.5,967.5 C431.56,967.5 508.78,967.5 552.35,967.5 " fill="none" style="stroke: #383838; stroke-width: 1.0;"/><text fill="#000000" font-family="sans-serif" font-size="13" lengthAdjust="spacingAndGlyphs" textLength="76" x="423.5" y="961.0684">responsable</text><polygon fill="#000000" points="502.5,954.6553,508.5,957.6553,502.5,960.6553,502.5,954.6553" style="stroke: #000000; stroke-width: 1.0;"/><text fill="#000000" font-family="sans-serif" font-size="13" lengthAdjust="spacingAndGlyphs" textLength="8" x="391.4922" y="963.7984">1</text><text fill="#000000" font-family="sans-serif" font-size="13" lengthAdjust="spacingAndGlyphs" textLength="26" x="518.5039" y="963.7984">0..N</text><path d="M513.1,1119.5 C536.32,1119.5 559.54,1119.5 582.75,1119.5 " fill="none" style="stroke: #383838; stroke-width: 1.0;"/><path d="M587.34,1119.5 C610.48,1119.5 633.61,1119.5 656.74,1119.5 " fill="none" style="stroke: #383838; stroke-width: 1.0;"/><path d="M585,1014.48 C585,1054.97 585,1108.79 585,1117.34 " fill="none" style="stroke: #383838; stroke-width: 1.0;"/><polygon fill="none" points="578,1014.29,585,994.29,592,1014.29,578,1014.29" style="stroke: #383838; stroke-width: 1.0;"/><polygon fill="#ECECEC" filter="url(#fypjesf)" points="590,1029,590,1054,637,1054,637,1039,627,1029,590,1029" style="stroke: #383838; stroke-width: 1.0;"/><line style="stroke: #383838; stroke-width: 1.0;" x1="627" x2="627" y1="1029" y2="1039"/><line style="stroke: #383838; stroke-width: 1.0;" x1="637" x2="627" y1="1039" y2="1039"/><text fill="#000000" font-family="sans-serif" font-size="13" lengthAdjust="spacingAndGlyphs" textLength="26" x="596" y="1046.5684">XOR</text><path d="M433.84,707 C475.01,707 526.18,707 564.61,707 " fill="none" style="stroke: #383838; stroke-width: 1.0;"/><text fill="#000000" font-family="sans-serif" font-size="13" lengthAdjust="spacingAndGlyphs" textLength="82" x="451.75" y="700.5684">fait remonter</text><polygon fill="#000000" points="536.75,694.1553,542.75,697.1553,536.75,700.1553,536.75,694.1553" style="stroke: #000000; stroke-width: 1.0;"/><text fill="#000000" font-family="sans-serif" font-size="13" lengthAdjust="spacingAndGlyphs" textLength="26" x="441.569" y="720.2721">1..N</text><text fill="#000000" font-family="sans-serif" font-size="13" lengthAdjust="spacingAndGlyphs" textLength="26" x="531.0205" y="720.4033">0..N</text><path d="M616.51,740.22 C609.28,792.19 595.17,893.49 588.57,940.89 " fill="none" style="stroke: #383838; stroke-width: 1.0;"/><polygon fill="#000000" points="639,843,642,837,645,843,639,843" style="stroke: #000000; stroke-width: 1.0;"/><text fill="#000000" font-family="sans-serif" font-size="13" lengthAdjust="spacingAndGlyphs" textLength="67" x="610" y="858.5684">apporté au</text><text fill="#000000" font-family="sans-serif" font-size="13" lengthAdjust="spacingAndGlyphs" textLength="8" x="606.8916" y="760.5761">1</text><text fill="#000000" font-family="sans-serif" font-size="13" lengthAdjust="spacingAndGlyphs" textLength="26" x="560.2714" y="930.1712">0..N</text><path d="M613.89,449.03 C615.42,504.58 618.57,618.17 620.11,673.82 " fill="none" style="stroke: #383838; stroke-width: 1.0;"/><polygon fill="#000000" points="649.5,576,652.5,570,655.5,576,649.5,576" style="stroke: #000000; stroke-width: 1.0;"/><text fill="#000000" font-family="sans-serif" font-size="13" lengthAdjust="spacingAndGlyphs" textLength="70" x="619" y="591.5684">detecte sur</text><text fill="#000000" font-family="sans-serif" font-size="13" lengthAdjust="spacingAndGlyphs" textLength="8" x="605.2777" y="469.604">1</text><text fill="#000000" font-family="sans-serif" font-size="13" lengthAdjust="spacingAndGlyphs" textLength="26" x="591.2452" y="663.0257">0..N</text><path d="M543.62,251.45 C560.89,292.17 584.57,347.98 599.32,382.75 " fill="none" style="stroke: #383838; stroke-width: 1.0;"/><polygon fill="#383838" points="538.48,239.34,537.1444,246.4263,543.172,250.3847,544.5076,243.2983,538.48,239.34" style="stroke: #383838; stroke-width: 1.0;"/><text fill="#000000" font-family="sans-serif" font-size="13" lengthAdjust="spacingAndGlyphs" textLength="26" x="568.0674" y="372.322">1..N</text><path d="M505.79,239.19 C472.96,317.54 401.16,488.92 394.5,504.81 " fill="none" style="stroke: #383838; stroke-width: 1.0;"/><polygon fill="#000000" points="497,329,500,323,503,329,497,329" style="stroke: #000000; stroke-width: 1.0;"/><text fill="#000000" font-family="sans-serif" font-size="13" lengthAdjust="spacingAndGlyphs" textLength="41" x="481" y="344.5684">achète</text><text fill="#000000" font-family="sans-serif" font-size="13" lengthAdjust="spacingAndGlyphs" textLength="26" x="474.9521" y="259.6001">1..N</text><path d="M393.8,509.26 C391.87,521.62 376.24,621.41 368.02,673.93 " fill="none" style="stroke: #383838; stroke-width: 1.0;"/><text fill="#000000" font-family="sans-serif" font-size="13" lengthAdjust="spacingAndGlyphs" textLength="26" x="340.3741" y="663.1584">0..N</text><path d="M322.91,507 C345.86,507 368.82,507 391.78,507 " fill="none" style="stroke: #383838; stroke-width: 1.0; stroke-dasharray: 7.0,7.0;"/><path d="M744.78,61.11 C740.37,70.49 735.39,81.19 731,91 C711.41,134.72 688.85,189.19 685.44,197.43 " fill="none" style="stroke: #383838; stroke-width: 1.0;"/><path d="M685.49,201.9 C689.05,212.02 710.96,274.25 722.26,306.36 " fill="none" style="stroke: #383838; stroke-width: 1.0;"/><path d="M607.62,199.5 C641.18,199.5 673.82,199.5 682.66,199.5 " fill="none" style="stroke: #383838; stroke-width: 1.0;"/><polygon fill="none" points="607.36,206.5,587.36,199.5,607.36,192.5,607.36,206.5" style="stroke: #383838; stroke-width: 1.0;"/><polygon fill="#ECECEC" filter="url(#fypjesf)" points="609.5,162.5,609.5,187.5,656.5,187.5,656.5,172.5,646.5,162.5,609.5,162.5" style="stroke: #383838; stroke-width: 1.0;"/><line style="stroke: #383838; stroke-width: 1.0;" x1="646.5" x2="646.5" y1="162.5" y2="172.5"/><line style="stroke: #383838; stroke-width: 1.0;" x1="656.5" x2="646.5" y1="172.5" y2="172.5"/><text fill="#000000" font-family="sans-serif" font-size="13" lengthAdjust="spacingAndGlyphs" textLength="26" x="615.5" y="180.0684">XOR</text><path d="M754.71,61.19 C750.84,104.34 742.66,194.12 735,270 C733.77,282.15 732.3,295.78 731.12,306.5 " fill="none" style="stroke: #383838; stroke-width: 1.0;"/><text fill="#000000" font-family="sans-serif" font-size="13" lengthAdjust="spacingAndGlyphs" textLength="56" x="747" y="204.5684">supporte</text><polygon fill="#000000" points="770.5,213.3105,773.5,219.3105,776.5,213.3105,770.5,213.3105" style="stroke: #000000; stroke-width: 1.0;"/><text fill="#000000" font-family="sans-serif" font-size="13" lengthAdjust="spacingAndGlyphs" textLength="26" x="725.1742" y="81.6905">0..N</text><text fill="#000000" font-family="sans-serif" font-size="13" lengthAdjust="spacingAndGlyphs" textLength="26" x="701.788" y="295.6737">1..N</text><path d="M739.59,326.5 C760.92,326.5 810.03,326.5 844.82,326.5 " fill="none" style="stroke: #383838; stroke-width: 1.0;"/><text fill="#000000" font-family="sans-serif" font-size="13" lengthAdjust="spacingAndGlyphs" textLength="56" x="757.75" y="320.0684">supporte</text><polygon fill="#000000" points="816.75,313.6553,822.75,316.6553,816.75,319.6553,816.75,313.6553" style="stroke: #000000; stroke-width: 1.0;"/><text fill="#000000" font-family="sans-serif" font-size="13" lengthAdjust="spacingAndGlyphs" textLength="26" x="747.4042" y="341.5822">1..N</text><text fill="#000000" font-family="sans-serif" font-size="13" lengthAdjust="spacingAndGlyphs" textLength="26" x="810.9831" y="340.2338">1..N</text><path d="M933.11,199.5 C956.32,199.5 979.54,199.5 1002.75,199.5 " fill="none" style="stroke: #383838; stroke-width: 1.0;"/><path d="M1007.3,199.5 C1030.49,199.5 1053.68,199.5 1076.87,199.5 " fill="none" style="stroke: #383838; stroke-width: 1.0;"/><path d="M812.4,70.05 C851.46,94.65 904.83,128.75 951,160 C972.36,174.46 997.68,193.09 1003.68,197.52 " fill="none" style="stroke: #383838; stroke-width: 1.0;"/><polygon fill="none" points="808.49,75.86,795.27,59.29,815.93,64,808.49,75.86" style="stroke: #383838; stroke-width: 1.0;"/><polygon fill="#ECECEC" filter="url(#fypjesf)" points="908,96,908,121,955,121,955,106,945,96,908,96" style="stroke: #383838; stroke-width: 1.0;"/><line style="stroke: #383838; stroke-width: 1.0;" x1="945" x2="945" y1="96" y2="106"/><line style="stroke: #383838; stroke-width: 1.0;" x1="955" x2="945" y1="106" y2="106"/><text fill="#000000" font-family="sans-serif" font-size="13" lengthAdjust="spacingAndGlyphs" textLength="26" x="914" y="113.5684">XOR</text><path d="M795.08,34.5 C816.03,34.5 842.3,34.5 865,34.5 " fill="none" style="stroke: #383838; stroke-width: 1.0;"/><text fill="#000000" font-family="sans-serif" font-size="13" lengthAdjust="spacingAndGlyphs" textLength="19" x="814" y="28.0684">est</text><polygon fill="#000000" points="836,21.6553,842,24.6553,836,27.6553,836,21.6553" style="stroke: #000000; stroke-width: 1.0;"/><text fill="#000000" font-family="sans-serif" font-size="13" lengthAdjust="spacingAndGlyphs" textLength="26" x="802.9016" y="48.2338">0..N</text><text fill="#000000" font-family="sans-serif" font-size="13" lengthAdjust="spacingAndGlyphs" textLength="26" x="831.232" y="19.3518">1..N</text></g></svg>