<?xml version="1.0" encoding="UTF-8" standalone="no"?><svg xmlns="http://www.w3.org/2000/svg" xmlns:xlink="http://www.w3.org/1999/xlink" contentScriptType="application/ecmascript" contentStyleType="text/css" height="1347px" preserveAspectRatio="none" style="width:1123px;height:1347px;" version="1.1" viewBox="0 0 1123 1347" width="1123px" zoomAndPan="magnify"><defs><filter height="300%" id="fglheo0" width="300%" x="-1" y="-1"><feGaussianBlur result="blurOut" stdDeviation="2.0"/><feColorMatrix in="blurOut" result="blurOut2" type="matrix" values="0 0 0 0 0 0 0 0 0 0 0 0 0 0 0 0 0 0 .4 0"/><feOffset dx="4.0" dy="4.0" in="blurOut2" result="blurOut3"/><feBlend in="SourceGraphic" in2="blurOut3" mode="normal"/></filter></defs><g><!--class Logiciel--><rect fill="#FEFECE" filter="url(#fglheo0)" height="86.8652" style="stroke: #A80036; stroke-width: 1.5;" width="130" x="418.5" y="168"/><ellipse cx="458.7" cy="184" fill="#A9DCDF" rx="11" ry="11" style="stroke: #A80036; stroke-width: 1.0;"/><path d="M458.8133,179.5981 L457.6595,184.6699 L459.9754,184.6699 Z M457.3191,177.3569 L460.3157,177.3569 L463.6609,189.75 L461.2122,189.75 L460.4485,186.687 L457.1697,186.687 L456.4227,189.75 L453.9739,189.75 Z "/><text fill="#000000" font-family="sans-serif" font-size="12" font-style="italic" lengthAdjust="spacingAndGlyphs" textLength="42" x="478.3" y="188.5352">Logiciel</text><line style="stroke: #A80036; stroke-width: 1.5;" x1="419.5" x2="547.5" y1="200" y2="200"/><text fill="#000000" font-family="sans-serif" font-size="11" lengthAdjust="spacingAndGlyphs" textLength="118" x="424.5" y="214.6348">NomDeve: string {key}</text><text fill="#000000" font-family="sans-serif" font-size="11" lengthAdjust="spacingAndGlyphs" textLength="92" x="424.5" y="227.5898">Nom: string {key}</text><text fill="#000000" font-family="sans-serif" font-size="11" lengthAdjust="spacingAndGlyphs" textLength="111" x="424.5" y="240.5449">DateLancement: date</text><line style="stroke: #A80036; stroke-width: 1.5;" x1="419.5" x2="547.5" y1="246.8652" y2="246.8652"/><!--class Version--><rect fill="#FEFECE" filter="url(#fglheo0)" height="73.9102" style="stroke: #A80036; stroke-width: 1.5;" width="132" x="502.5" y="407"/><ellipse cx="543.15" cy="423" fill="#ADD1B2" rx="11" ry="11" style="stroke: #A80036; stroke-width: 1.0;"/><path d="M545.6231,429.1431 Q545.0421,429.4419 544.4029,429.5913 Q543.7638,429.7407 543.0582,429.7407 Q540.5514,429.7407 539.2315,428.0889 Q537.9117,426.437 537.9117,423.3159 Q537.9117,420.1865 539.2315,418.5347 Q540.5514,416.8828 543.0582,416.8828 Q543.7638,416.8828 544.4112,417.0322 Q545.0587,417.1816 545.6231,417.4805 L545.6231,420.2031 Q544.9923,419.6221 544.3988,419.3523 Q543.8053,419.0825 543.1744,419.0825 Q541.8297,419.0825 541.1449,420.1492 Q540.4601,421.2158 540.4601,423.3159 Q540.4601,425.4077 541.1449,426.4744 Q541.8297,427.541 543.1744,427.541 Q543.8053,427.541 544.3988,427.2712 Q544.9923,427.0015 545.6231,426.4204 Z "/><text fill="#000000" font-family="sans-serif" font-size="12" lengthAdjust="spacingAndGlyphs" textLength="43" x="562.85" y="427.5352">Version</text><line style="stroke: #A80036; stroke-width: 1.5;" x1="503.5" x2="633.5" y1="439" y2="439"/><text fill="#000000" font-family="sans-serif" font-size="11" lengthAdjust="spacingAndGlyphs" textLength="120" x="508.5" y="453.6348">Numero: int {local key}</text><text fill="#000000" font-family="sans-serif" font-size="11" lengthAdjust="spacingAndGlyphs" textLength="120" x="508.5" y="466.5898">DateDisponibilite: date</text><line style="stroke: #A80036; stroke-width: 1.5;" x1="503.5" x2="633.5" y1="472.9102" y2="472.9102"/><!--class Probleme--><rect fill="#FEFECE" filter="url(#fglheo0)" height="73.9102" style="stroke: #A80036; stroke-width: 1.5;" width="112" x="540.5" y="711"/><ellipse cx="566.75" cy="727" fill="#ADD1B2" rx="11" ry="11" style="stroke: #A80036; stroke-width: 1.0;"/><path d="M569.2231,733.1431 Q568.6421,733.4419 568.0029,733.5913 Q567.3638,733.7407 566.6582,733.7407 Q564.1514,733.7407 562.8315,732.0889 Q561.5117,730.437 561.5117,727.3159 Q561.5117,724.1865 562.8315,722.5347 Q564.1514,720.8828 566.6582,720.8828 Q567.3638,720.8828 568.0112,721.0322 Q568.6587,721.1816 569.2231,721.4805 L569.2231,724.2031 Q568.5923,723.6221 567.9988,723.3523 Q567.4053,723.0825 566.7744,723.0825 Q565.4297,723.0825 564.7449,724.1492 Q564.0601,725.2158 564.0601,727.3159 Q564.0601,729.4077 564.7449,730.4744 Q565.4297,731.541 566.7744,731.541 Q567.4053,731.541 567.9988,731.2712 Q568.5923,731.0015 569.2231,730.4204 Z "/><text fill="#000000" font-family="sans-serif" font-size="12" lengthAdjust="spacingAndGlyphs" textLength="55" x="583.25" y="731.5352">Probleme</text><line style="stroke: #A80036; stroke-width: 1.5;" x1="541.5" x2="651.5" y1="743" y2="743"/><text fill="#000000" font-family="sans-serif" font-size="11" lengthAdjust="spacingAndGlyphs" textLength="53" x="546.5" y="757.6348">Date: date</text><text fill="#000000" font-family="sans-serif" font-size="11" lengthAdjust="spacingAndGlyphs" textLength="100" x="546.5" y="770.5898">Description: string</text><line style="stroke: #A80036; stroke-width: 1.5;" x1="541.5" x2="651.5" y1="776.9102" y2="776.9102"/><!--class Correctif--><rect fill="#FEFECE" filter="url(#fglheo0)" height="60.9551" style="stroke: #A80036; stroke-width: 1.5;" width="81" x="553" y="1118"/><ellipse cx="568" cy="1134" fill="#A9DCDF" rx="11" ry="11" style="stroke: #A80036; stroke-width: 1.0;"/><path d="M568.1133,1129.5981 L566.9595,1134.6699 L569.2754,1134.6699 Z M566.6191,1127.3569 L569.6157,1127.3569 L572.9609,1139.75 L570.5122,1139.75 L569.7485,1136.687 L566.4697,1136.687 L565.7227,1139.75 L563.2739,1139.75 Z "/><text fill="#000000" font-family="sans-serif" font-size="12" font-style="italic" lengthAdjust="spacingAndGlyphs" textLength="49" x="582" y="1138.5352">Correctif</text><line style="stroke: #A80036; stroke-width: 1.5;" x1="554" x2="633" y1="1150" y2="1150"/><text fill="#000000" font-family="sans-serif" font-size="11" lengthAdjust="spacingAndGlyphs" textLength="53" x="559" y="1164.6348">Date: date</text><line style="stroke: #A80036; stroke-width: 1.5;" x1="554" x2="633" y1="1170.9551" y2="1170.9551"/><!--class InstructionTextuelle--><rect fill="#FEFECE" filter="url(#fglheo0)" height="60.9551" style="stroke: #A80036; stroke-width: 1.5;" width="144" x="377.5" y="1278"/><ellipse cx="392.5" cy="1294" fill="#ADD1B2" rx="11" ry="11" style="stroke: #A80036; stroke-width: 1.0;"/><path d="M394.9731,1300.1431 Q394.3921,1300.4419 393.7529,1300.5913 Q393.1138,1300.7407 392.4082,1300.7407 Q389.9014,1300.7407 388.5815,1299.0889 Q387.2617,1297.437 387.2617,1294.3159 Q387.2617,1291.1865 388.5815,1289.5347 Q389.9014,1287.8828 392.4082,1287.8828 Q393.1138,1287.8828 393.7612,1288.0322 Q394.4087,1288.1816 394.9731,1288.4805 L394.9731,1291.2031 Q394.3423,1290.6221 393.7488,1290.3523 Q393.1553,1290.0825 392.5244,1290.0825 Q391.1797,1290.0825 390.4949,1291.1492 Q389.8101,1292.2158 389.8101,1294.3159 Q389.8101,1296.4077 390.4949,1297.4744 Q391.1797,1298.541 392.5244,1298.541 Q393.1553,1298.541 393.7488,1298.2712 Q394.3423,1298.0015 394.9731,1297.4204 Z "/><text fill="#000000" font-family="sans-serif" font-size="12" lengthAdjust="spacingAndGlyphs" textLength="112" x="406.5" y="1298.5352">InstructionTextuelle</text><line style="stroke: #A80036; stroke-width: 1.5;" x1="378.5" x2="520.5" y1="1310" y2="1310"/><text fill="#000000" font-family="sans-serif" font-size="11" lengthAdjust="spacingAndGlyphs" textLength="97" x="383.5" y="1324.6348">Instruction: string</text><line style="stroke: #A80036; stroke-width: 1.5;" x1="378.5" x2="520.5" y1="1330.9551" y2="1330.9551"/><!--class PatchCorrectif--><rect fill="#FEFECE" filter="url(#fglheo0)" height="60.9551" style="stroke: #A80036; stroke-width: 1.5;" width="112" x="665.5" y="1278"/><ellipse cx="680.5" cy="1294" fill="#ADD1B2" rx="11" ry="11" style="stroke: #A80036; stroke-width: 1.0;"/><path d="M682.9731,1300.1431 Q682.3921,1300.4419 681.7529,1300.5913 Q681.1138,1300.7407 680.4082,1300.7407 Q677.9014,1300.7407 676.5815,1299.0889 Q675.2617,1297.437 675.2617,1294.3159 Q675.2617,1291.1865 676.5815,1289.5347 Q677.9014,1287.8828 680.4082,1287.8828 Q681.1138,1287.8828 681.7612,1288.0322 Q682.4087,1288.1816 682.9731,1288.4805 L682.9731,1291.2031 Q682.3423,1290.6221 681.7488,1290.3523 Q681.1553,1290.0825 680.5244,1290.0825 Q679.1797,1290.0825 678.4949,1291.1492 Q677.8101,1292.2158 677.8101,1294.3159 Q677.8101,1296.4077 678.4949,1297.4744 Q679.1797,1298.541 680.5244,1298.541 Q681.1553,1298.541 681.7488,1298.2712 Q682.3423,1298.0015 682.9731,1297.4204 Z "/><text fill="#000000" font-family="sans-serif" font-size="12" lengthAdjust="spacingAndGlyphs" textLength="80" x="694.5" y="1298.5352">PatchCorrectif</text><line style="stroke: #A80036; stroke-width: 1.5;" x1="666.5" x2="776.5" y1="1310" y2="1310"/><text fill="#000000" font-family="sans-serif" font-size="11" lengthAdjust="spacingAndGlyphs" textLength="84" x="671.5" y="1324.6348">ID: integer {key}</text><line style="stroke: #A80036; stroke-width: 1.5;" x1="666.5" x2="776.5" y1="1330.9551" y2="1330.9551"/><!--class Personne--><rect fill="#FEFECE" filter="url(#fglheo0)" height="86.8652" style="stroke: #A80036; stroke-width: 1.5;" width="119" x="414" y="908"/><ellipse cx="444.3" cy="924" fill="#A9DCDF" rx="11" ry="11" style="stroke: #A80036; stroke-width: 1.0;"/><path d="M444.4133,919.5981 L443.2595,924.6699 L445.5754,924.6699 Z M442.9191,917.3569 L445.9157,917.3569 L449.2609,929.75 L446.8122,929.75 L446.0485,926.687 L442.7697,926.687 L442.0227,929.75 L439.5739,929.75 Z "/><text fill="#000000" font-family="sans-serif" font-size="12" font-style="italic" lengthAdjust="spacingAndGlyphs" textLength="53" x="461.7" y="928.5352">Personne</text><line style="stroke: #A80036; stroke-width: 1.5;" x1="415" x2="532" y1="940" y2="940"/><text fill="#000000" font-family="sans-serif" font-size="11" lengthAdjust="spacingAndGlyphs" textLength="63" x="420" y="954.6348">Nom: string</text><text fill="#000000" font-family="sans-serif" font-size="11" lengthAdjust="spacingAndGlyphs" textLength="79" x="420" y="967.5898">Prenom: string</text><text fill="#000000" font-family="sans-serif" font-size="11" lengthAdjust="spacingAndGlyphs" textLength="107" x="420" y="980.5449">DateNaissance: date</text><line style="stroke: #A80036; stroke-width: 1.5;" x1="415" x2="532" y1="986.8652" y2="986.8652"/><!--class Employe--><rect fill="#FEFECE" filter="url(#fglheo0)" height="60.9551" style="stroke: #A80036; stroke-width: 1.5;" width="85" x="303" y="1118"/><ellipse cx="319.8" cy="1134" fill="#ADD1B2" rx="11" ry="11" style="stroke: #A80036; stroke-width: 1.0;"/><path d="M322.2731,1140.1431 Q321.6921,1140.4419 321.0529,1140.5913 Q320.4138,1140.7407 319.7082,1140.7407 Q317.2014,1140.7407 315.8815,1139.0889 Q314.5617,1137.437 314.5617,1134.3159 Q314.5617,1131.1865 315.8815,1129.5347 Q317.2014,1127.8828 319.7082,1127.8828 Q320.4138,1127.8828 321.0612,1128.0322 Q321.7087,1128.1816 322.2731,1128.4805 L322.2731,1131.2031 Q321.6423,1130.6221 321.0488,1130.3523 Q320.4553,1130.0825 319.8244,1130.0825 Q318.4797,1130.0825 317.7949,1131.1492 Q317.1101,1132.2158 317.1101,1134.3159 Q317.1101,1136.4077 317.7949,1137.4744 Q318.4797,1138.541 319.8244,1138.541 Q320.4553,1138.541 321.0488,1138.2712 Q321.6423,1138.0015 322.2731,1137.4204 Z "/><text fill="#000000" font-family="sans-serif" font-size="12" lengthAdjust="spacingAndGlyphs" textLength="49" x="334.2" y="1138.5352">Employe</text><line style="stroke: #A80036; stroke-width: 1.5;" x1="304" x2="387" y1="1150" y2="1150"/><text fill="#000000" font-family="sans-serif" font-size="11" lengthAdjust="spacingAndGlyphs" textLength="73" x="309" y="1164.6348">Poste: integer</text><line style="stroke: #A80036; stroke-width: 1.5;" x1="304" x2="387" y1="1170.9551" y2="1170.9551"/><polygon fill="#FBFB77" filter="url(#fglheo0)" points="6,1136,6,1161.3105,233,1161.3105,233,1146,223,1136,6,1136" style="stroke: #A80036; stroke-width: 1.0;"/><polygon fill="#FBFB77" points="6,1136,6,1161.3105,233,1161.3105,233,1154,302.58,1148.5,233,1146,233,1146,223,1136,6,1136" style="stroke: #A80036; stroke-width: 1.0;"/><line style="stroke: #A80036; stroke-width: 1.0;" x1="223" x2="223" y1="1136" y2="1146"/><line style="stroke: #A80036; stroke-width: 1.0;" x1="233" x2="223" y1="1146" y2="1146"/><text fill="#000000" font-family="sans-serif" font-size="13" lengthAdjust="spacingAndGlyphs" textLength="206" x="12" y="1153.5684">{(Nom,Prenom,ddn,N_Poste) key}</text><!--class Client--><rect fill="#FEFECE" filter="url(#fglheo0)" height="73.9102" style="stroke: #A80036; stroke-width: 1.5;" width="141" x="268" y="711"/><ellipse cx="318.25" cy="727" fill="#ADD1B2" rx="11" ry="11" style="stroke: #A80036; stroke-width: 1.0;"/><path d="M320.7231,733.1431 Q320.1421,733.4419 319.5029,733.5913 Q318.8638,733.7407 318.1582,733.7407 Q315.6514,733.7407 314.3315,732.0889 Q313.0117,730.437 313.0117,727.3159 Q313.0117,724.1865 314.3315,722.5347 Q315.6514,720.8828 318.1582,720.8828 Q318.8638,720.8828 319.5112,721.0322 Q320.1587,721.1816 320.7231,721.4805 L320.7231,724.2031 Q320.0923,723.6221 319.4988,723.3523 Q318.9053,723.0825 318.2744,723.0825 Q316.9297,723.0825 316.2449,724.1492 Q315.5601,725.2158 315.5601,727.3159 Q315.5601,729.4077 316.2449,730.4744 Q316.9297,731.541 318.2744,731.541 Q318.9053,731.541 319.4988,731.2712 Q320.0923,731.0015 320.7231,730.4204 Z "/><text fill="#000000" font-family="sans-serif" font-size="12" lengthAdjust="spacingAndGlyphs" textLength="32" x="338.75" y="731.5352">Client</text><line style="stroke: #A80036; stroke-width: 1.5;" x1="269" x2="408" y1="743" y2="743"/><text fill="#000000" font-family="sans-serif" font-size="11" lengthAdjust="spacingAndGlyphs" textLength="82" x="274" y="757.6348">Adresse: string</text><text fill="#000000" font-family="sans-serif" font-size="11" lengthAdjust="spacingAndGlyphs" textLength="129" x="274" y="770.5898">Telephone: integer {key}</text><line style="stroke: #A80036; stroke-width: 1.5;" x1="269" x2="408" y1="776.9102" y2="776.9102"/><!--class Achat--><rect fill="#FEFECE" filter="url(#fglheo0)" height="60.9551" style="stroke: #A80036; stroke-width: 1.5;" width="65" x="461" y="511"/><ellipse cx="476.45" cy="527" fill="#ADD1B2" rx="11" ry="11" style="stroke: #A80036; stroke-width: 1.0;"/><path d="M478.9231,533.1431 Q478.3421,533.4419 477.7029,533.5913 Q477.0638,533.7407 476.3582,533.7407 Q473.8514,533.7407 472.5315,532.0889 Q471.2117,530.437 471.2117,527.3159 Q471.2117,524.1865 472.5315,522.5347 Q473.8514,520.8828 476.3582,520.8828 Q477.0638,520.8828 477.7112,521.0322 Q478.3587,521.1816 478.9231,521.4805 L478.9231,524.2031 Q478.2923,523.6221 477.6988,523.3523 Q477.1053,523.0825 476.4744,523.0825 Q475.1297,523.0825 474.4449,524.1492 Q473.7601,525.2158 473.7601,527.3159 Q473.7601,529.4077 474.4449,530.4744 Q475.1297,531.541 476.4744,531.541 Q477.1053,531.541 477.6988,531.2712 Q478.2923,531.0015 478.9231,530.4204 Z "/><text fill="#000000" font-family="sans-serif" font-size="12" lengthAdjust="spacingAndGlyphs" textLength="32" x="490.55" y="531.5352">Achat</text><line style="stroke: #A80036; stroke-width: 1.5;" x1="462" x2="525" y1="543" y2="543"/><text fill="#000000" font-family="sans-serif" font-size="11" lengthAdjust="spacingAndGlyphs" textLength="53" x="467" y="557.6348">Date: date</text><line style="stroke: #A80036; stroke-width: 1.5;" x1="462" x2="525" y1="563.9551" y2="563.9551"/><polygon fill="#FBFB77" filter="url(#fglheo0)" points="633,529,633,554.3105,794,554.3105,794,539,784,529,633,529" style="stroke: #A80036; stroke-width: 1.0;"/><polygon fill="#FBFB77" points="633,529,633,537.5,526.16,541.5,633,545.5,633,554.3105,794,554.3105,794,539,784,529,633,529" style="stroke: #A80036; stroke-width: 1.0;"/><line style="stroke: #A80036; stroke-width: 1.0;" x1="784" x2="784" y1="529" y2="539"/><line style="stroke: #A80036; stroke-width: 1.0;" x1="794" x2="784" y1="539" y2="539"/><text fill="#000000" font-family="sans-serif" font-size="13" lengthAdjust="spacingAndGlyphs" textLength="140" x="639" y="546.5684">Date&gt;Date_lancement</text><!--class OS--><rect fill="#FEFECE" filter="url(#fglheo0)" height="48" style="stroke: #A80036; stroke-width: 1.5;" width="47" x="667" y="322.5"/><ellipse cx="682" cy="338.5" fill="#ADD1B2" rx="11" ry="11" style="stroke: #A80036; stroke-width: 1.0;"/><path d="M684.4731,344.6431 Q683.8921,344.9419 683.2529,345.0913 Q682.6138,345.2407 681.9082,345.2407 Q679.4014,345.2407 678.0815,343.5889 Q676.7617,341.937 676.7617,338.8159 Q676.7617,335.6865 678.0815,334.0347 Q679.4014,332.3828 681.9082,332.3828 Q682.6138,332.3828 683.2612,332.5322 Q683.9087,332.6816 684.4731,332.9805 L684.4731,335.7031 Q683.8423,335.1221 683.2488,334.8523 Q682.6553,334.5825 682.0244,334.5825 Q680.6797,334.5825 679.9949,335.6492 Q679.3101,336.7158 679.3101,338.8159 Q679.3101,340.9077 679.9949,341.9744 Q680.6797,343.041 682.0244,343.041 Q682.6553,343.041 683.2488,342.7712 Q683.8423,342.5015 684.4731,341.9204 Z "/><text fill="#000000" font-family="sans-serif" font-size="12" lengthAdjust="spacingAndGlyphs" textLength="15" x="696" y="343.0352">OS</text><line style="stroke: #A80036; stroke-width: 1.5;" x1="668" x2="713" y1="354.5" y2="354.5"/><line style="stroke: #A80036; stroke-width: 1.5;" x1="668" x2="713" y1="362.5" y2="362.5"/><!--class Programme--><rect fill="#FEFECE" filter="url(#fglheo0)" height="60.9551" style="stroke: #A80036; stroke-width: 1.5;" width="99" x="669" y="8"/><ellipse cx="684" cy="24" fill="#A9DCDF" rx="11" ry="11" style="stroke: #A80036; stroke-width: 1.0;"/><path d="M684.1133,19.5981 L682.9595,24.6699 L685.2754,24.6699 Z M682.6191,17.3569 L685.6157,17.3569 L688.9609,29.75 L686.5122,29.75 L685.7485,26.687 L682.4697,26.687 L681.7227,29.75 L679.2739,29.75 Z "/><text fill="#000000" font-family="sans-serif" font-size="12" font-style="italic" lengthAdjust="spacingAndGlyphs" textLength="67" x="698" y="28.5352">Programme</text><line style="stroke: #A80036; stroke-width: 1.5;" x1="670" x2="767" y1="40" y2="40"/><text fill="#000000" font-family="sans-serif" font-size="11" lengthAdjust="spacingAndGlyphs" textLength="64" x="675" y="54.6348">Type: string</text><line style="stroke: #A80036; stroke-width: 1.5;" x1="670" x2="767" y1="60.9551" y2="60.9551"/><!--class Application--><rect fill="#FEFECE" filter="url(#fglheo0)" height="48" style="stroke: #A80036; stroke-width: 1.5;" width="96" x="824.5" y="187.5"/><ellipse cx="839.5" cy="203.5" fill="#ADD1B2" rx="11" ry="11" style="stroke: #A80036; stroke-width: 1.0;"/><path d="M841.9731,209.6431 Q841.3921,209.9419 840.7529,210.0913 Q840.1138,210.2407 839.4082,210.2407 Q836.9014,210.2407 835.5815,208.5889 Q834.2617,206.937 834.2617,203.8159 Q834.2617,200.6865 835.5815,199.0347 Q836.9014,197.3828 839.4082,197.3828 Q840.1138,197.3828 840.7612,197.5322 Q841.4087,197.6816 841.9731,197.9805 L841.9731,200.7031 Q841.3423,200.1221 840.7488,199.8523 Q840.1553,199.5825 839.5244,199.5825 Q838.1797,199.5825 837.4949,200.6492 Q836.8101,201.7158 836.8101,203.8159 Q836.8101,205.9077 837.4949,206.9744 Q838.1797,208.041 839.5244,208.041 Q840.1553,208.041 840.7488,207.7712 Q841.3423,207.5015 841.9731,206.9204 Z "/><text fill="#000000" font-family="sans-serif" font-size="12" lengthAdjust="spacingAndGlyphs" textLength="64" x="853.5" y="208.0352">Application</text><line style="stroke: #A80036; stroke-width: 1.5;" x1="825.5" x2="919.5" y1="219.5" y2="219.5"/><line style="stroke: #A80036; stroke-width: 1.5;" x1="825.5" x2="919.5" y1="227.5" y2="227.5"/><!--class Jeu--><rect fill="#FEFECE" filter="url(#fglheo0)" height="48" style="stroke: #A80036; stroke-width: 1.5;" width="50" x="1064.5" y="187.5"/><ellipse cx="1079.5" cy="203.5" fill="#ADD1B2" rx="11" ry="11" style="stroke: #A80036; stroke-width: 1.0;"/><path d="M1081.9731,209.6431 Q1081.3921,209.9419 1080.7529,210.0913 Q1080.1138,210.2407 1079.4082,210.2407 Q1076.9014,210.2407 1075.5815,208.5889 Q1074.2617,206.937 1074.2617,203.8159 Q1074.2617,200.6865 1075.5815,199.0347 Q1076.9014,197.3828 1079.4082,197.3828 Q1080.1138,197.3828 1080.7612,197.5322 Q1081.4087,197.6816 1081.9731,197.9805 L1081.9731,200.7031 Q1081.3423,200.1221 1080.7488,199.8523 Q1080.1553,199.5825 1079.5244,199.5825 Q1078.1797,199.5825 1077.4949,200.6492 Q1076.8101,201.7158 1076.8101,203.8159 Q1076.8101,205.9077 1077.4949,206.9744 Q1078.1797,208.041 1079.5244,208.041 Q1080.1553,208.041 1080.7488,207.7712 Q1081.3423,207.5015 1081.9731,206.9204 Z "/><text fill="#000000" font-family="sans-serif" font-size="12" lengthAdjust="spacingAndGlyphs" textLength="18" x="1093.5" y="208.0352">Jeu</text><line style="stroke: #A80036; stroke-width: 1.5;" x1="1065.5" x2="1113.5" y1="219.5" y2="219.5"/><line style="stroke: #A80036; stroke-width: 1.5;" x1="1065.5" x2="1113.5" y1="227.5" y2="227.5"/><!--class Plateforme--><rect fill="#FEFECE" filter="url(#fglheo0)" height="60.9551" style="stroke: #A80036; stroke-width: 1.5;" width="266" x="819.5" y="316"/><ellipse cx="917.25" cy="332" fill="#ADD1B2" rx="11" ry="11" style="stroke: #A80036; stroke-width: 1.0;"/><path d="M919.7231,338.1431 Q919.1421,338.4419 918.5029,338.5913 Q917.8638,338.7407 917.1582,338.7407 Q914.6514,338.7407 913.3315,337.0889 Q912.0117,335.437 912.0117,332.3159 Q912.0117,329.1865 913.3315,327.5347 Q914.6514,325.8828 917.1582,325.8828 Q917.8638,325.8828 918.5112,326.0322 Q919.1587,326.1816 919.7231,326.4805 L919.7231,329.2031 Q919.0923,328.6221 918.4988,328.3523 Q917.9053,328.0825 917.2744,328.0825 Q915.9297,328.0825 915.2449,329.1492 Q914.5601,330.2158 914.5601,332.3159 Q914.5601,334.4077 915.2449,335.4744 Q915.9297,336.541 917.2744,336.541 Q917.9053,336.541 918.4988,336.2712 Q919.0923,336.0015 919.7231,335.4204 Z "/><text fill="#000000" font-family="sans-serif" font-size="12" lengthAdjust="spacingAndGlyphs" textLength="62" x="937.75" y="336.5352">Plateforme</text><line style="stroke: #A80036; stroke-width: 1.5;" x1="820.5" x2="1084.5" y1="348" y2="348"/><text fill="#000000" font-family="sans-serif" font-size="11" lengthAdjust="spacingAndGlyphs" textLength="254" x="825.5" y="362.6348">Type: enum {Smartphone, Tablette, PC, Serveur}</text><line style="stroke: #A80036; stroke-width: 1.5;" x1="820.5" x2="1084.5" y1="368.9551" y2="368.9551"/><ellipse cx="316.5" cy="951.5" fill="#000000" rx="2" ry="2" style="stroke: none; stroke-width: 1.0;"/><ellipse cx="593.5" cy="1308.5" fill="#000000" rx="2" ry="2" style="stroke: none; stroke-width: 1.0;"/><ellipse cx="389.5" cy="541.5" fill="#000000" rx="2" ry="2" style="stroke: none; stroke-width: 1.0;"/><ellipse cx="646.5" cy="211.5" fill="#000000" rx="2" ry="2" style="stroke: none; stroke-width: 1.0;"/><ellipse cx="992.5" cy="211.5" fill="#000000" rx="2" ry="2" style="stroke: none; stroke-width: 1.0;"/><path d="M334.57,785.02 C328.63,839.36 317.95,937.25 316.63,949.28 " fill="none" style="stroke: #A80036; stroke-width: 1.0;"/><path d="M316.69,953.75 C318.52,966.07 333.5,1066.83 341.11,1117.96 " fill="none" style="stroke: #A80036; stroke-width: 1.0;"/><path d="M318.72,951.5 C327.43,951.5 360.46,951.5 393.79,951.5 " fill="none" style="stroke: #A80036; stroke-width: 1.0;"/><polygon fill="none" points="393.81,944.5,413.81,951.5,393.81,958.5,393.81,944.5" style="stroke: #A80036; stroke-width: 1.0;"/><polygon fill="#FBFB77" filter="url(#fglheo0)" points="340.75,914.5,340.75,939.5,387.75,939.5,387.75,924.5,377.75,914.5,340.75,914.5" style="stroke: #A80036; stroke-width: 1.0;"/><line style="stroke: #A80036; stroke-width: 1.0;" x1="377.75" x2="377.75" y1="914.5" y2="924.5"/><line style="stroke: #A80036; stroke-width: 1.0;" x1="387.75" x2="377.75" y1="924.5" y2="924.5"/><text fill="#000000" font-family="sans-serif" font-size="13" lengthAdjust="spacingAndGlyphs" textLength="26" x="346.75" y="932.0684">XOR</text><path d="M388.13,1148.5 C434.25,1148.5 507.25,1148.5 552.66,1148.5 " fill="none" style="stroke: #A80036; stroke-width: 1.0;"/><text fill="#000000" font-family="sans-serif" font-size="13" lengthAdjust="spacingAndGlyphs" textLength="76" x="426" y="1142.0684">responsable</text><polygon fill="#000000" points="505,1135.6553,511,1138.6553,505,1141.6553,505,1135.6553" style="stroke: #000000; stroke-width: 1.0;"/><text fill="#000000" font-family="sans-serif" font-size="13" lengthAdjust="spacingAndGlyphs" textLength="8" x="396.1445" y="1144.8098">1</text><text fill="#000000" font-family="sans-serif" font-size="13" lengthAdjust="spacingAndGlyphs" textLength="6" x="539.125" y="1144.8098">*</text><path d="M521.78,1308.5 C544.94,1308.5 568.1,1308.5 591.26,1308.5 " fill="none" style="stroke: #A80036; stroke-width: 1.0;"/><path d="M596,1308.5 C619.04,1308.5 642.08,1308.5 665.12,1308.5 " fill="none" style="stroke: #A80036; stroke-width: 1.0;"/><path d="M593.5,1199.37 C593.5,1241.91 593.5,1297.56 593.5,1306.32 " fill="none" style="stroke: #A80036; stroke-width: 1.0;"/><polygon fill="none" points="586.5,1199.22,593.5,1179.22,600.5,1199.22,586.5,1199.22" style="stroke: #A80036; stroke-width: 1.0;"/><polygon fill="#FBFB77" filter="url(#fglheo0)" points="598.5,1214,598.5,1239,645.5,1239,645.5,1224,635.5,1214,598.5,1214" style="stroke: #A80036; stroke-width: 1.0;"/><line style="stroke: #A80036; stroke-width: 1.0;" x1="635.5" x2="635.5" y1="1214" y2="1224"/><line style="stroke: #A80036; stroke-width: 1.0;" x1="645.5" x2="635.5" y1="1224" y2="1224"/><text fill="#000000" font-family="sans-serif" font-size="13" lengthAdjust="spacingAndGlyphs" textLength="26" x="604.5" y="1231.5684">XOR</text><path d="M409.34,748 C450.51,748 501.68,748 540.11,748 " fill="none" style="stroke: #A80036; stroke-width: 1.0;"/><text fill="#000000" font-family="sans-serif" font-size="13" lengthAdjust="spacingAndGlyphs" textLength="82" x="427.25" y="741.5684">fait remonter</text><polygon fill="#000000" points="512.25,735.1553,518.25,738.1553,512.25,741.1553,512.25,735.1553" style="stroke: #000000; stroke-width: 1.0;"/><text fill="#000000" font-family="sans-serif" font-size="13" lengthAdjust="spacingAndGlyphs" textLength="26" x="417.069" y="761.2782">1..N</text><text fill="#000000" font-family="sans-serif" font-size="13" lengthAdjust="spacingAndGlyphs" textLength="26" x="506.5205" y="761.4106">1..N</text><path d="M600.37,785.34 C601.99,803.54 603.5,825.91 603.5,846 C603.5,846 603.5,846 603.5,1057 C603.5,1077.39 600.96,1100.21 598.44,1117.84 " fill="none" style="stroke: #A80036; stroke-width: 1.0;"/><polygon fill="#000000" points="633.5,954,636.5,948,639.5,954,633.5,954" style="stroke: #000000; stroke-width: 1.0;"/><text fill="#000000" font-family="sans-serif" font-size="13" lengthAdjust="spacingAndGlyphs" textLength="67" x="604.5" y="969.5684">apporté au</text><text fill="#000000" font-family="sans-serif" font-size="13" lengthAdjust="spacingAndGlyphs" textLength="26" x="572.8578" y="805.3681">1..N</text><text fill="#000000" font-family="sans-serif" font-size="13" lengthAdjust="spacingAndGlyphs" textLength="6" x="592.8644" y="1107.0997">*</text><path d="M571.85,481.13 C577.24,539.21 587.76,652.72 593.15,710.83 " fill="none" style="stroke: #A80036; stroke-width: 1.0;"/><polygon fill="#000000" points="617,613,620,607,623,613,617,613" style="stroke: #000000; stroke-width: 1.0;"/><text fill="#000000" font-family="sans-serif" font-size="13" lengthAdjust="spacingAndGlyphs" textLength="70" x="586.5" y="628.5684">detecte sur</text><text fill="#000000" font-family="sans-serif" font-size="13" lengthAdjust="spacingAndGlyphs" textLength="8" x="563.7383" y="501.4035">1</text><text fill="#000000" font-family="sans-serif" font-size="13" lengthAdjust="spacingAndGlyphs" textLength="6" x="585.9792" y="700.1992">*</text><path d="M503.72,267.32 C519.62,310.46 541.33,369.33 555.14,406.77 " fill="none" style="stroke: #A80036; stroke-width: 1.0;"/><polygon fill="#A80036" points="499.19,255.05,497.5135,262.0635,503.3427,266.3085,505.0192,259.295,499.19,255.05" style="stroke: #A80036; stroke-width: 1.0;"/><text fill="#000000" font-family="sans-serif" font-size="13" lengthAdjust="spacingAndGlyphs" textLength="22" x="528.6486" y="396.1282">0.N</text><path d="M471.31,255.04 C447.07,339.63 394.72,522.3 389.86,539.23 " fill="none" style="stroke: #A80036; stroke-width: 1.0;"/><text fill="#000000" font-family="sans-serif" font-size="13" lengthAdjust="spacingAndGlyphs" textLength="41" x="454.5" y="351.5684">achete</text><polygon fill="#000000" points="470.5,360.3105,473.5,366.3105,476.5,360.3105,470.5,360.3105" style="stroke: #000000; stroke-width: 1.0;"/><text fill="#000000" font-family="sans-serif" font-size="13" lengthAdjust="spacingAndGlyphs" textLength="6" x="462.984" y="275.458">*</text><path d="M389.17,543.81 C386.05,556.32 361.24,655.82 347.53,710.79 " fill="none" style="stroke: #A80036; stroke-width: 1.0;"/><text fill="#000000" font-family="sans-serif" font-size="13" lengthAdjust="spacingAndGlyphs" textLength="26" x="320.798" y="700.1519">1..N</text><path d="M460.84,541.5 C437.74,541.5 414.63,541.5 391.53,541.5 " fill="none" style="stroke: #A80036; stroke-width: 1.0; stroke-dasharray: 7.0,7.0;"/><path d="M705.42,69.11 C701.25,78.63 696.64,89.25 692.5,99 C673.18,144.49 650.39,200.87 646.94,209.4 " fill="none" style="stroke: #A80036; stroke-width: 1.0;"/><path d="M646.99,213.99 C650.46,224.47 671.31,287.49 682.84,322.35 " fill="none" style="stroke: #A80036; stroke-width: 1.0;"/><path d="M569.12,211.5 C602.68,211.5 635.32,211.5 644.16,211.5 " fill="none" style="stroke: #A80036; stroke-width: 1.0;"/><polygon fill="none" points="568.86,218.5,548.86,211.5,568.86,204.5,568.86,218.5" style="stroke: #A80036; stroke-width: 1.0;"/><polygon fill="#FBFB77" filter="url(#fglheo0)" points="571,174.5,571,199.5,618,199.5,618,184.5,608,174.5,571,174.5" style="stroke: #A80036; stroke-width: 1.0;"/><line style="stroke: #A80036; stroke-width: 1.0;" x1="608" x2="608" y1="174.5" y2="184.5"/><line style="stroke: #A80036; stroke-width: 1.0;" x1="618" x2="608" y1="184.5" y2="184.5"/><text fill="#000000" font-family="sans-serif" font-size="13" lengthAdjust="spacingAndGlyphs" textLength="26" x="577" y="192.0684">XOR</text><path d="M715.97,69.11 C711.98,115.4 703.94,207.73 696.5,286 C695.36,297.99 694.02,311.33 692.9,322.34 " fill="none" style="stroke: #A80036; stroke-width: 1.0;"/><text fill="#000000" font-family="sans-serif" font-size="13" lengthAdjust="spacingAndGlyphs" textLength="56" x="708.5" y="216.5684">supporte</text><polygon fill="#000000" points="732,225.3105,735,231.3105,738,225.3105,732,225.3105" style="stroke: #000000; stroke-width: 1.0;"/><text fill="#000000" font-family="sans-serif" font-size="13" lengthAdjust="spacingAndGlyphs" textLength="6" x="708.8294" y="89.5752">*</text><text fill="#000000" font-family="sans-serif" font-size="13" lengthAdjust="spacingAndGlyphs" textLength="26" x="664.1837" y="311.8353">1..N</text><path d="M714.21,346.5 C738.65,346.5 778.78,346.5 819.2,346.5 " fill="none" style="stroke: #A80036; stroke-width: 1.0;"/><polygon fill="#000000" points="739.25,333.6553,733.25,336.6553,739.25,339.6553,739.25,333.6553" style="stroke: #000000; stroke-width: 1.0;"/><text fill="#000000" font-family="sans-serif" font-size="13" lengthAdjust="spacingAndGlyphs" textLength="56" x="745.25" y="340.0684">supporte</text><text fill="#000000" font-family="sans-serif" font-size="13" lengthAdjust="spacingAndGlyphs" textLength="26" x="721.7814" y="360.6473">1..N</text><text fill="#000000" font-family="sans-serif" font-size="13" lengthAdjust="spacingAndGlyphs" textLength="26" x="785.6564" y="359.4642">1..N</text><path d="M920.78,211.5 C943.94,211.5 967.1,211.5 990.26,211.5 " fill="none" style="stroke: #A80036; stroke-width: 1.0;"/><path d="M994.77,211.5 C1017.96,211.5 1041.15,211.5 1064.34,211.5 " fill="none" style="stroke: #A80036; stroke-width: 1.0;"/><path d="M785.92,75.7 C830.23,100.25 888.96,134.27 938.5,168 C960.59,183.04 985.37,204.3 991.22,209.38 " fill="none" style="stroke: #A80036; stroke-width: 1.0;"/><polygon fill="none" points="782.34,81.72,768.19,65.95,789.09,69.45,782.34,81.72" style="stroke: #A80036; stroke-width: 1.0;"/><polygon fill="#FBFB77" filter="url(#fglheo0)" points="896.5,104,896.5,129,943.5,129,943.5,114,933.5,104,896.5,104" style="stroke: #A80036; stroke-width: 1.0;"/><line style="stroke: #A80036; stroke-width: 1.0;" x1="933.5" x2="933.5" y1="104" y2="114"/><line style="stroke: #A80036; stroke-width: 1.0;" x1="943.5" x2="933.5" y1="114" y2="114"/><text fill="#000000" font-family="sans-serif" font-size="13" lengthAdjust="spacingAndGlyphs" textLength="26" x="902.5" y="121.5684">XOR</text></g></svg>