<?xml version="1.0" encoding="UTF-8" standalone="no"?><svg xmlns="http://www.w3.org/2000/svg" xmlns:xlink="http://www.w3.org/1999/xlink" contentScriptType="application/ecmascript" contentStyleType="text/css" height="1223px" preserveAspectRatio="none" style="width:1281px;height:1223px;" version="1.1" viewBox="0 0 1281 1223" width="1281px" zoomAndPan="magnify"><defs><filter height="300%" id="fwlbmv2" width="300%" x="-1" y="-1"><feGaussianBlur result="blurOut" stdDeviation="2.0"/><feColorMatrix in="blurOut" result="blurOut2" type="matrix" values="0 0 0 0 0 0 0 0 0 0 0 0 0 0 0 0 0 0 .4 0"/><feOffset dx="4.0" dy="4.0" in="blurOut2" result="blurOut3"/><feBlend in="SourceGraphic" in2="blurOut3" mode="normal"/></filter></defs><g><polygon fill="#FBFB77" filter="url(#fwlbmv2)" points="1039.5,26,1039.5,51.3105,1272.5,51.3105,1272.5,36,1262.5,26,1039.5,26" style="stroke: #A80036; stroke-width: 1.0;"/><line style="stroke: #A80036; stroke-width: 1.0;" x1="1262.5" x2="1262.5" y1="26" y2="36"/><line style="stroke: #A80036; stroke-width: 1.0;" x1="1272.5" x2="1262.5" y1="36" y2="36"/><text fill="#000000" font-family="sans-serif" font-size="13" lengthAdjust="spacingAndGlyphs" textLength="212" x="1045.5" y="43.5684">Tous les attributs sont NOT NULL</text><!--class Logiciel--><rect fill="#FEFECE" filter="url(#fwlbmv2)" height="86.8652" style="stroke: #A80036; stroke-width: 1.5;" width="130" x="457" y="168"/><ellipse cx="497.2" cy="184" fill="#A9DCDF" rx="11" ry="11" style="stroke: #A80036; stroke-width: 1.0;"/><path d="M497.3133,179.5981 L496.1595,184.6699 L498.4754,184.6699 Z M495.8191,177.3569 L498.8157,177.3569 L502.1609,189.75 L499.7122,189.75 L498.9485,186.687 L495.6697,186.687 L494.9227,189.75 L492.4739,189.75 Z "/><text fill="#000000" font-family="sans-serif" font-size="12" font-style="italic" lengthAdjust="spacingAndGlyphs" textLength="42" x="516.8" y="188.5352">Logiciel</text><line style="stroke: #A80036; stroke-width: 1.5;" x1="458" x2="586" y1="200" y2="200"/><text fill="#000000" font-family="sans-serif" font-size="11" lengthAdjust="spacingAndGlyphs" textLength="118" x="463" y="214.6348">NomDeve: string {key}</text><text fill="#000000" font-family="sans-serif" font-size="11" lengthAdjust="spacingAndGlyphs" textLength="92" x="463" y="227.5898">Nom: string {key}</text><text fill="#000000" font-family="sans-serif" font-size="11" lengthAdjust="spacingAndGlyphs" textLength="111" x="463" y="240.5449">DateLancement: date</text><line style="stroke: #A80036; stroke-width: 1.5;" x1="458" x2="586" y1="246.8652" y2="246.8652"/><!--class Version--><rect fill="#FEFECE" filter="url(#fwlbmv2)" height="73.9102" style="stroke: #A80036; stroke-width: 1.5;" width="132" x="547" y="407"/><ellipse cx="587.65" cy="423" fill="#ADD1B2" rx="11" ry="11" style="stroke: #A80036; stroke-width: 1.0;"/><path d="M590.1231,429.1431 Q589.5421,429.4419 588.9029,429.5913 Q588.2638,429.7407 587.5582,429.7407 Q585.0514,429.7407 583.7315,428.0889 Q582.4117,426.437 582.4117,423.3159 Q582.4117,420.1865 583.7315,418.5347 Q585.0514,416.8828 587.5582,416.8828 Q588.2638,416.8828 588.9112,417.0322 Q589.5587,417.1816 590.1231,417.4805 L590.1231,420.2031 Q589.4923,419.6221 588.8988,419.3523 Q588.3053,419.0825 587.6744,419.0825 Q586.3297,419.0825 585.6449,420.1492 Q584.9601,421.2158 584.9601,423.3159 Q584.9601,425.4077 585.6449,426.4744 Q586.3297,427.541 587.6744,427.541 Q588.3053,427.541 588.8988,427.2712 Q589.4923,427.0015 590.1231,426.4204 Z "/><text fill="#000000" font-family="sans-serif" font-size="12" lengthAdjust="spacingAndGlyphs" textLength="43" x="607.35" y="427.5352">Version</text><line style="stroke: #A80036; stroke-width: 1.5;" x1="548" x2="678" y1="439" y2="439"/><text fill="#000000" font-family="sans-serif" font-size="11" lengthAdjust="spacingAndGlyphs" textLength="120" x="553" y="453.6348">Numéro: int {local key}</text><text fill="#000000" font-family="sans-serif" font-size="11" lengthAdjust="spacingAndGlyphs" textLength="120" x="553" y="466.5898">DateDisponibilité: date</text><line style="stroke: #A80036; stroke-width: 1.5;" x1="548" x2="678" y1="472.9102" y2="472.9102"/><!--class Problème--><rect fill="#FEFECE" filter="url(#fwlbmv2)" height="73.9102" style="stroke: #A80036; stroke-width: 1.5;" width="112" x="565" y="711"/><ellipse cx="591.25" cy="727" fill="#ADD1B2" rx="11" ry="11" style="stroke: #A80036; stroke-width: 1.0;"/><path d="M593.7231,733.1431 Q593.1421,733.4419 592.5029,733.5913 Q591.8638,733.7407 591.1582,733.7407 Q588.6514,733.7407 587.3315,732.0889 Q586.0117,730.437 586.0117,727.3159 Q586.0117,724.1865 587.3315,722.5347 Q588.6514,720.8828 591.1582,720.8828 Q591.8638,720.8828 592.5112,721.0322 Q593.1587,721.1816 593.7231,721.4805 L593.7231,724.2031 Q593.0923,723.6221 592.4988,723.3523 Q591.9053,723.0825 591.2744,723.0825 Q589.9297,723.0825 589.2449,724.1492 Q588.5601,725.2158 588.5601,727.3159 Q588.5601,729.4077 589.2449,730.4744 Q589.9297,731.541 591.2744,731.541 Q591.9053,731.541 592.4988,731.2712 Q593.0923,731.0015 593.7231,730.4204 Z "/><text fill="#000000" font-family="sans-serif" font-size="12" lengthAdjust="spacingAndGlyphs" textLength="55" x="607.75" y="731.5352">Problème</text><line style="stroke: #A80036; stroke-width: 1.5;" x1="566" x2="676" y1="743" y2="743"/><text fill="#000000" font-family="sans-serif" font-size="11" lengthAdjust="spacingAndGlyphs" textLength="53" x="571" y="757.6348">Date: date</text><text fill="#000000" font-family="sans-serif" font-size="11" lengthAdjust="spacingAndGlyphs" textLength="100" x="571" y="770.5898">Description: string</text><line style="stroke: #A80036; stroke-width: 1.5;" x1="566" x2="676" y1="776.9102" y2="776.9102"/><!--class Correctif--><rect fill="#FEFECE" filter="url(#fwlbmv2)" height="60.9551" style="stroke: #A80036; stroke-width: 1.5;" width="81" x="548.5" y="994"/><ellipse cx="563.5" cy="1010" fill="#A9DCDF" rx="11" ry="11" style="stroke: #A80036; stroke-width: 1.0;"/><path d="M563.6133,1005.5981 L562.4595,1010.6699 L564.7754,1010.6699 Z M562.1191,1003.3569 L565.1157,1003.3569 L568.4609,1015.75 L566.0122,1015.75 L565.2485,1012.687 L561.9697,1012.687 L561.2227,1015.75 L558.7739,1015.75 Z "/><text fill="#000000" font-family="sans-serif" font-size="12" font-style="italic" lengthAdjust="spacingAndGlyphs" textLength="49" x="577.5" y="1014.5352">Correctif</text><line style="stroke: #A80036; stroke-width: 1.5;" x1="549.5" x2="628.5" y1="1026" y2="1026"/><text fill="#000000" font-family="sans-serif" font-size="11" lengthAdjust="spacingAndGlyphs" textLength="53" x="554.5" y="1040.6348">Date: date</text><line style="stroke: #A80036; stroke-width: 1.5;" x1="549.5" x2="628.5" y1="1046.9551" y2="1046.9551"/><!--class InstructionTextuelle--><rect fill="#FEFECE" filter="url(#fwlbmv2)" height="60.9551" style="stroke: #A80036; stroke-width: 1.5;" width="144" x="373" y="1154"/><ellipse cx="388" cy="1170" fill="#ADD1B2" rx="11" ry="11" style="stroke: #A80036; stroke-width: 1.0;"/><path d="M390.4731,1176.1431 Q389.8921,1176.4419 389.2529,1176.5913 Q388.6138,1176.7407 387.9082,1176.7407 Q385.4014,1176.7407 384.0815,1175.0889 Q382.7617,1173.437 382.7617,1170.3159 Q382.7617,1167.1865 384.0815,1165.5347 Q385.4014,1163.8828 387.9082,1163.8828 Q388.6138,1163.8828 389.2612,1164.0322 Q389.9087,1164.1816 390.4731,1164.4805 L390.4731,1167.2031 Q389.8423,1166.6221 389.2488,1166.3523 Q388.6553,1166.0825 388.0244,1166.0825 Q386.6797,1166.0825 385.9949,1167.1492 Q385.3101,1168.2158 385.3101,1170.3159 Q385.3101,1172.4077 385.9949,1173.4744 Q386.6797,1174.541 388.0244,1174.541 Q388.6553,1174.541 389.2488,1174.2712 Q389.8423,1174.0015 390.4731,1173.4204 Z "/><text fill="#000000" font-family="sans-serif" font-size="12" lengthAdjust="spacingAndGlyphs" textLength="112" x="402" y="1174.5352">InstructionTextuelle</text><line style="stroke: #A80036; stroke-width: 1.5;" x1="374" x2="516" y1="1186" y2="1186"/><text fill="#000000" font-family="sans-serif" font-size="11" lengthAdjust="spacingAndGlyphs" textLength="97" x="379" y="1200.6348">Instruction: string</text><line style="stroke: #A80036; stroke-width: 1.5;" x1="374" x2="516" y1="1206.9551" y2="1206.9551"/><!--class PatchCorrectif--><rect fill="#FEFECE" filter="url(#fwlbmv2)" height="60.9551" style="stroke: #A80036; stroke-width: 1.5;" width="112" x="661" y="1154"/><ellipse cx="676" cy="1170" fill="#ADD1B2" rx="11" ry="11" style="stroke: #A80036; stroke-width: 1.0;"/><path d="M678.4731,1176.1431 Q677.8921,1176.4419 677.2529,1176.5913 Q676.6138,1176.7407 675.9082,1176.7407 Q673.4014,1176.7407 672.0815,1175.0889 Q670.7617,1173.437 670.7617,1170.3159 Q670.7617,1167.1865 672.0815,1165.5347 Q673.4014,1163.8828 675.9082,1163.8828 Q676.6138,1163.8828 677.2612,1164.0322 Q677.9087,1164.1816 678.4731,1164.4805 L678.4731,1167.2031 Q677.8423,1166.6221 677.2488,1166.3523 Q676.6553,1166.0825 676.0244,1166.0825 Q674.6797,1166.0825 673.9949,1167.1492 Q673.3101,1168.2158 673.3101,1170.3159 Q673.3101,1172.4077 673.9949,1173.4744 Q674.6797,1174.541 676.0244,1174.541 Q676.6553,1174.541 677.2488,1174.2712 Q677.8423,1174.0015 678.4731,1173.4204 Z "/><text fill="#000000" font-family="sans-serif" font-size="12" lengthAdjust="spacingAndGlyphs" textLength="80" x="690" y="1174.5352">PatchCorrectif</text><line style="stroke: #A80036; stroke-width: 1.5;" x1="662" x2="772" y1="1186" y2="1186"/><text fill="#000000" font-family="sans-serif" font-size="11" lengthAdjust="spacingAndGlyphs" textLength="84" x="667" y="1200.6348">ID: integer {key}</text><line style="stroke: #A80036; stroke-width: 1.5;" x1="662" x2="772" y1="1206.9551" y2="1206.9551"/><!--class Personne--><rect fill="#FEFECE" filter="url(#fwlbmv2)" height="86.8652" style="stroke: #A80036; stroke-width: 1.5;" width="119" x="438.5" y="846"/><ellipse cx="468.8" cy="862" fill="#A9DCDF" rx="11" ry="11" style="stroke: #A80036; stroke-width: 1.0;"/><path d="M468.9133,857.5981 L467.7595,862.6699 L470.0754,862.6699 Z M467.4191,855.3569 L470.4157,855.3569 L473.7609,867.75 L471.3122,867.75 L470.5485,864.687 L467.2697,864.687 L466.5227,867.75 L464.0739,867.75 Z "/><text fill="#000000" font-family="sans-serif" font-size="12" font-style="italic" lengthAdjust="spacingAndGlyphs" textLength="53" x="486.2" y="866.5352">Personne</text><line style="stroke: #A80036; stroke-width: 1.5;" x1="439.5" x2="556.5" y1="878" y2="878"/><text fill="#000000" font-family="sans-serif" font-size="11" lengthAdjust="spacingAndGlyphs" textLength="63" x="444.5" y="892.6348">Nom: string</text><text fill="#000000" font-family="sans-serif" font-size="11" lengthAdjust="spacingAndGlyphs" textLength="79" x="444.5" y="905.5898">Prénom: string</text><text fill="#000000" font-family="sans-serif" font-size="11" lengthAdjust="spacingAndGlyphs" textLength="107" x="444.5" y="918.5449">DateNaissance: date</text><line style="stroke: #A80036; stroke-width: 1.5;" x1="439.5" x2="556.5" y1="924.8652" y2="924.8652"/><!--class Employé--><rect fill="#FEFECE" filter="url(#fwlbmv2)" height="60.9551" style="stroke: #A80036; stroke-width: 1.5;" width="85" x="298.5" y="994"/><ellipse cx="315.3" cy="1010" fill="#ADD1B2" rx="11" ry="11" style="stroke: #A80036; stroke-width: 1.0;"/><path d="M317.7731,1016.1431 Q317.1921,1016.4419 316.5529,1016.5913 Q315.9138,1016.7407 315.2082,1016.7407 Q312.7014,1016.7407 311.3815,1015.0889 Q310.0617,1013.437 310.0617,1010.3159 Q310.0617,1007.1865 311.3815,1005.5347 Q312.7014,1003.8828 315.2082,1003.8828 Q315.9138,1003.8828 316.5612,1004.0322 Q317.2087,1004.1816 317.7731,1004.4805 L317.7731,1007.2031 Q317.1423,1006.6221 316.5488,1006.3523 Q315.9553,1006.0825 315.3244,1006.0825 Q313.9797,1006.0825 313.2949,1007.1492 Q312.6101,1008.2158 312.6101,1010.3159 Q312.6101,1012.4077 313.2949,1013.4744 Q313.9797,1014.541 315.3244,1014.541 Q315.9553,1014.541 316.5488,1014.2712 Q317.1423,1014.0015 317.7731,1013.4204 Z "/><text fill="#000000" font-family="sans-serif" font-size="12" lengthAdjust="spacingAndGlyphs" textLength="49" x="329.7" y="1014.5352">Employé</text><line style="stroke: #A80036; stroke-width: 1.5;" x1="299.5" x2="382.5" y1="1026" y2="1026"/><text fill="#000000" font-family="sans-serif" font-size="11" lengthAdjust="spacingAndGlyphs" textLength="73" x="304.5" y="1040.6348">Poste: integer</text><line style="stroke: #A80036; stroke-width: 1.5;" x1="299.5" x2="382.5" y1="1046.9551" y2="1046.9551"/><polygon fill="#FBFB77" filter="url(#fwlbmv2)" points="24.5,877,24.5,902.3105,303.5,902.3105,303.5,887,293.5,877,24.5,877" style="stroke: #A80036; stroke-width: 1.0;"/><polygon fill="#FBFB77" points="24.5,877,24.5,902.3105,175.4,902.3105,301.58,993.88,183.4,902.3105,303.5,902.3105,303.5,887,293.5,877,24.5,877" style="stroke: #A80036; stroke-width: 1.0;"/><line style="stroke: #A80036; stroke-width: 1.0;" x1="293.5" x2="293.5" y1="877" y2="887"/><line style="stroke: #A80036; stroke-width: 1.0;" x1="303.5" x2="293.5" y1="887" y2="887"/><text fill="#000000" font-family="sans-serif" font-size="13" lengthAdjust="spacingAndGlyphs" textLength="258" x="30.5" y="894.5684">{(Nom,Prénom,DateNaissance,Poste) key}</text><!--class Client--><rect fill="#FEFECE" filter="url(#fwlbmv2)" height="73.9102" style="stroke: #A80036; stroke-width: 1.5;" width="141" x="292.5" y="711"/><ellipse cx="342.75" cy="727" fill="#ADD1B2" rx="11" ry="11" style="stroke: #A80036; stroke-width: 1.0;"/><path d="M345.2231,733.1431 Q344.6421,733.4419 344.0029,733.5913 Q343.3638,733.7407 342.6582,733.7407 Q340.1514,733.7407 338.8315,732.0889 Q337.5117,730.437 337.5117,727.3159 Q337.5117,724.1865 338.8315,722.5347 Q340.1514,720.8828 342.6582,720.8828 Q343.3638,720.8828 344.0112,721.0322 Q344.6587,721.1816 345.2231,721.4805 L345.2231,724.2031 Q344.5923,723.6221 343.9988,723.3523 Q343.4053,723.0825 342.7744,723.0825 Q341.4297,723.0825 340.7449,724.1492 Q340.0601,725.2158 340.0601,727.3159 Q340.0601,729.4077 340.7449,730.4744 Q341.4297,731.541 342.7744,731.541 Q343.4053,731.541 343.9988,731.2712 Q344.5923,731.0015 345.2231,730.4204 Z "/><text fill="#000000" font-family="sans-serif" font-size="12" lengthAdjust="spacingAndGlyphs" textLength="32" x="363.25" y="731.5352">Client</text><line style="stroke: #A80036; stroke-width: 1.5;" x1="293.5" x2="432.5" y1="743" y2="743"/><text fill="#000000" font-family="sans-serif" font-size="11" lengthAdjust="spacingAndGlyphs" textLength="82" x="298.5" y="757.6348">Adresse: string</text><text fill="#000000" font-family="sans-serif" font-size="11" lengthAdjust="spacingAndGlyphs" textLength="129" x="298.5" y="770.5898">Téléphone: integer {key}</text><line style="stroke: #A80036; stroke-width: 1.5;" x1="293.5" x2="432.5" y1="776.9102" y2="776.9102"/><!--class Achat--><rect fill="#FEFECE" filter="url(#fwlbmv2)" height="60.9551" style="stroke: #A80036; stroke-width: 1.5;" width="65" x="257.5" y="511"/><ellipse cx="272.95" cy="527" fill="#ADD1B2" rx="11" ry="11" style="stroke: #A80036; stroke-width: 1.0;"/><path d="M275.4231,533.1431 Q274.8421,533.4419 274.2029,533.5913 Q273.5638,533.7407 272.8582,533.7407 Q270.3514,533.7407 269.0315,532.0889 Q267.7117,530.437 267.7117,527.3159 Q267.7117,524.1865 269.0315,522.5347 Q270.3514,520.8828 272.8582,520.8828 Q273.5638,520.8828 274.2112,521.0322 Q274.8587,521.1816 275.4231,521.4805 L275.4231,524.2031 Q274.7923,523.6221 274.1988,523.3523 Q273.6053,523.0825 272.9744,523.0825 Q271.6297,523.0825 270.9449,524.1492 Q270.2601,525.2158 270.2601,527.3159 Q270.2601,529.4077 270.9449,530.4744 Q271.6297,531.541 272.9744,531.541 Q273.6053,531.541 274.1988,531.2712 Q274.7923,531.0015 275.4231,530.4204 Z "/><text fill="#000000" font-family="sans-serif" font-size="12" lengthAdjust="spacingAndGlyphs" textLength="32" x="287.05" y="531.5352">Achat</text><line style="stroke: #A80036; stroke-width: 1.5;" x1="258.5" x2="321.5" y1="543" y2="543"/><text fill="#000000" font-family="sans-serif" font-size="11" lengthAdjust="spacingAndGlyphs" textLength="53" x="263.5" y="557.6348">Date: date</text><line style="stroke: #A80036; stroke-width: 1.5;" x1="258.5" x2="321.5" y1="563.9551" y2="563.9551"/><polygon fill="#FBFB77" filter="url(#fwlbmv2)" points="6,513.5,6,569.4316,188,569.4316,188,523.5,178,513.5,6,513.5" style="stroke: #A80036; stroke-width: 1.0;"/><polygon fill="#FBFB77" points="6,513.5,6,569.4316,188,569.4316,188,545.5,257.4,541.5,188,537.5,188,523.5,178,513.5,6,513.5" style="stroke: #A80036; stroke-width: 1.0;"/><line style="stroke: #A80036; stroke-width: 1.0;" x1="178" x2="178" y1="513.5" y2="523.5"/><line style="stroke: #A80036; stroke-width: 1.0;" x1="188" x2="178" y1="523.5" y2="523.5"/><text fill="#000000" font-family="sans-serif" font-size="13" lengthAdjust="spacingAndGlyphs" textLength="161" x="12" y="531.0684">{(Client,Logiciel,Date) key</text><text fill="#000000" font-family="sans-serif" font-size="13" lengthAdjust="spacingAndGlyphs" textLength="0" x="16" y="546.3789"/><text fill="#000000" font-family="sans-serif" font-size="13" lengthAdjust="spacingAndGlyphs" textLength="140" x="12" y="561.6895">Date&gt;DateLancement}</text><!--class OS--><rect fill="#FEFECE" filter="url(#fwlbmv2)" height="48" style="stroke: #A80036; stroke-width: 1.5;" width="47" x="705.5" y="322.5"/><ellipse cx="720.5" cy="338.5" fill="#ADD1B2" rx="11" ry="11" style="stroke: #A80036; stroke-width: 1.0;"/><path d="M722.9731,344.6431 Q722.3921,344.9419 721.7529,345.0913 Q721.1138,345.2407 720.4082,345.2407 Q717.9014,345.2407 716.5815,343.5889 Q715.2617,341.937 715.2617,338.8159 Q715.2617,335.6865 716.5815,334.0347 Q717.9014,332.3828 720.4082,332.3828 Q721.1138,332.3828 721.7612,332.5322 Q722.4087,332.6816 722.9731,332.9805 L722.9731,335.7031 Q722.3423,335.1221 721.7488,334.8523 Q721.1553,334.5825 720.5244,334.5825 Q719.1797,334.5825 718.4949,335.6492 Q717.8101,336.7158 717.8101,338.8159 Q717.8101,340.9077 718.4949,341.9744 Q719.1797,343.041 720.5244,343.041 Q721.1553,343.041 721.7488,342.7712 Q722.3423,342.5015 722.9731,341.9204 Z "/><text fill="#000000" font-family="sans-serif" font-size="12" lengthAdjust="spacingAndGlyphs" textLength="15" x="734.5" y="343.0352">OS</text><line style="stroke: #A80036; stroke-width: 1.5;" x1="706.5" x2="751.5" y1="354.5" y2="354.5"/><line style="stroke: #A80036; stroke-width: 1.5;" x1="706.5" x2="751.5" y1="362.5" y2="362.5"/><!--class Programme--><rect fill="#FEFECE" filter="url(#fwlbmv2)" height="60.9551" style="stroke: #A80036; stroke-width: 1.5;" width="99" x="707.5" y="8"/><ellipse cx="722.5" cy="24" fill="#A9DCDF" rx="11" ry="11" style="stroke: #A80036; stroke-width: 1.0;"/><path d="M722.6133,19.5981 L721.4595,24.6699 L723.7754,24.6699 Z M721.1191,17.3569 L724.1157,17.3569 L727.4609,29.75 L725.0122,29.75 L724.2485,26.687 L720.9697,26.687 L720.2227,29.75 L717.7739,29.75 Z "/><text fill="#000000" font-family="sans-serif" font-size="12" font-style="italic" lengthAdjust="spacingAndGlyphs" textLength="67" x="736.5" y="28.5352">Programme</text><line style="stroke: #A80036; stroke-width: 1.5;" x1="708.5" x2="805.5" y1="40" y2="40"/><text fill="#000000" font-family="sans-serif" font-size="11" lengthAdjust="spacingAndGlyphs" textLength="64" x="713.5" y="54.6348">Type: string</text><line style="stroke: #A80036; stroke-width: 1.5;" x1="708.5" x2="805.5" y1="60.9551" y2="60.9551"/><!--class Application--><rect fill="#FEFECE" filter="url(#fwlbmv2)" height="48" style="stroke: #A80036; stroke-width: 1.5;" width="96" x="863" y="187.5"/><ellipse cx="878" cy="203.5" fill="#ADD1B2" rx="11" ry="11" style="stroke: #A80036; stroke-width: 1.0;"/><path d="M880.4731,209.6431 Q879.8921,209.9419 879.2529,210.0913 Q878.6138,210.2407 877.9082,210.2407 Q875.4014,210.2407 874.0815,208.5889 Q872.7617,206.937 872.7617,203.8159 Q872.7617,200.6865 874.0815,199.0347 Q875.4014,197.3828 877.9082,197.3828 Q878.6138,197.3828 879.2612,197.5322 Q879.9087,197.6816 880.4731,197.9805 L880.4731,200.7031 Q879.8423,200.1221 879.2488,199.8523 Q878.6553,199.5825 878.0244,199.5825 Q876.6797,199.5825 875.9949,200.6492 Q875.3101,201.7158 875.3101,203.8159 Q875.3101,205.9077 875.9949,206.9744 Q876.6797,208.041 878.0244,208.041 Q878.6553,208.041 879.2488,207.7712 Q879.8423,207.5015 880.4731,206.9204 Z "/><text fill="#000000" font-family="sans-serif" font-size="12" lengthAdjust="spacingAndGlyphs" textLength="64" x="892" y="208.0352">Application</text><line style="stroke: #A80036; stroke-width: 1.5;" x1="864" x2="958" y1="219.5" y2="219.5"/><line style="stroke: #A80036; stroke-width: 1.5;" x1="864" x2="958" y1="227.5" y2="227.5"/><!--class Jeu--><rect fill="#FEFECE" filter="url(#fwlbmv2)" height="48" style="stroke: #A80036; stroke-width: 1.5;" width="50" x="1103" y="187.5"/><ellipse cx="1118" cy="203.5" fill="#ADD1B2" rx="11" ry="11" style="stroke: #A80036; stroke-width: 1.0;"/><path d="M1120.4731,209.6431 Q1119.8921,209.9419 1119.2529,210.0913 Q1118.6138,210.2407 1117.9082,210.2407 Q1115.4014,210.2407 1114.0815,208.5889 Q1112.7617,206.937 1112.7617,203.8159 Q1112.7617,200.6865 1114.0815,199.0347 Q1115.4014,197.3828 1117.9082,197.3828 Q1118.6138,197.3828 1119.2612,197.5322 Q1119.9087,197.6816 1120.4731,197.9805 L1120.4731,200.7031 Q1119.8423,200.1221 1119.2488,199.8523 Q1118.6553,199.5825 1118.0244,199.5825 Q1116.6797,199.5825 1115.9949,200.6492 Q1115.3101,201.7158 1115.3101,203.8159 Q1115.3101,205.9077 1115.9949,206.9744 Q1116.6797,208.041 1118.0244,208.041 Q1118.6553,208.041 1119.2488,207.7712 Q1119.8423,207.5015 1120.4731,206.9204 Z "/><text fill="#000000" font-family="sans-serif" font-size="12" lengthAdjust="spacingAndGlyphs" textLength="18" x="1132" y="208.0352">Jeu</text><line style="stroke: #A80036; stroke-width: 1.5;" x1="1104" x2="1152" y1="219.5" y2="219.5"/><line style="stroke: #A80036; stroke-width: 1.5;" x1="1104" x2="1152" y1="227.5" y2="227.5"/><!--class Plateforme--><rect fill="#FEFECE" filter="url(#fwlbmv2)" height="60.9551" style="stroke: #A80036; stroke-width: 1.5;" width="94" x="858" y="316"/><ellipse cx="873" cy="332" fill="#ADD1B2" rx="11" ry="11" style="stroke: #A80036; stroke-width: 1.0;"/><path d="M875.4731,338.1431 Q874.8921,338.4419 874.2529,338.5913 Q873.6138,338.7407 872.9082,338.7407 Q870.4014,338.7407 869.0815,337.0889 Q867.7617,335.437 867.7617,332.3159 Q867.7617,329.1865 869.0815,327.5347 Q870.4014,325.8828 872.9082,325.8828 Q873.6138,325.8828 874.2612,326.0322 Q874.9087,326.1816 875.4731,326.4805 L875.4731,329.2031 Q874.8423,328.6221 874.2488,328.3523 Q873.6553,328.0825 873.0244,328.0825 Q871.6797,328.0825 870.9949,329.1492 Q870.3101,330.2158 870.3101,332.3159 Q870.3101,334.4077 870.9949,335.4744 Q871.6797,336.541 873.0244,336.541 Q873.6553,336.541 874.2488,336.2712 Q874.8423,336.0015 875.4731,335.4204 Z "/><text fill="#000000" font-family="sans-serif" font-size="12" lengthAdjust="spacingAndGlyphs" textLength="62" x="887" y="336.5352">Plateforme</text><line style="stroke: #A80036; stroke-width: 1.5;" x1="859" x2="951" y1="348" y2="348"/><text fill="#000000" font-family="sans-serif" font-size="11" lengthAdjust="spacingAndGlyphs" textLength="64" x="864" y="362.6348">Type: string</text><line style="stroke: #A80036; stroke-width: 1.5;" x1="859" x2="951" y1="368.9551" y2="368.9551"/><!--class ProgrammeType--><rect fill="#FEFECE" filter="url(#fwlbmv2)" height="60.9551" style="stroke: #A80036; stroke-width: 1.5;" width="128" x="876" y="8"/><ellipse cx="891" cy="24" fill="#ADD1B2" rx="11" ry="11" style="stroke: #A80036; stroke-width: 1.0;"/><path d="M893.4731,30.1431 Q892.8921,30.4419 892.2529,30.5913 Q891.6138,30.7407 890.9082,30.7407 Q888.4014,30.7407 887.0815,29.0889 Q885.7617,27.437 885.7617,24.3159 Q885.7617,21.1865 887.0815,19.5347 Q888.4014,17.8828 890.9082,17.8828 Q891.6138,17.8828 892.2612,18.0322 Q892.9087,18.1816 893.4731,18.4805 L893.4731,21.2031 Q892.8423,20.6221 892.2488,20.3523 Q891.6553,20.0825 891.0244,20.0825 Q889.6797,20.0825 888.9949,21.1492 Q888.3101,22.2158 888.3101,24.3159 Q888.3101,26.4077 888.9949,27.4744 Q889.6797,28.541 891.0244,28.541 Q891.6553,28.541 892.2488,28.2712 Q892.8423,28.0015 893.4731,27.4204 Z "/><text fill="#000000" font-family="sans-serif" font-size="12" lengthAdjust="spacingAndGlyphs" textLength="96" x="905" y="28.5352">ProgrammeType</text><line style="stroke: #A80036; stroke-width: 1.5;" x1="877" x2="1003" y1="40" y2="40"/><text fill="#000000" font-family="sans-serif" font-size="11" lengthAdjust="spacingAndGlyphs" textLength="64" x="882" y="54.6348">Type: string</text><line style="stroke: #A80036; stroke-width: 1.5;" x1="877" x2="1003" y1="60.9551" y2="60.9551"/><ellipse cx="341" cy="889.5" fill="#000000" rx="2" ry="2" style="stroke: none; stroke-width: 1.0;"/><ellipse cx="589" cy="1184.5" fill="#000000" rx="2" ry="2" style="stroke: none; stroke-width: 1.0;"/><ellipse cx="394" cy="541.5" fill="#000000" rx="2" ry="2" style="stroke: none; stroke-width: 1.0;"/><ellipse cx="685" cy="211.5" fill="#000000" rx="2" ry="2" style="stroke: none; stroke-width: 1.0;"/><ellipse cx="1031" cy="211.5" fill="#000000" rx="2" ry="2" style="stroke: none; stroke-width: 1.0;"/><path d="M357.28,785.29 C351.27,823.39 342.51,878.96 341.17,887.41 " fill="none" style="stroke: #A80036; stroke-width: 1.0;"/><path d="M341,891.99 C341,901.84 341,958.13 341,993.8 " fill="none" style="stroke: #A80036; stroke-width: 1.0;"/><path d="M418.29,889.5 C384.96,889.5 351.93,889.5 343.22,889.5 " fill="none" style="stroke: #A80036; stroke-width: 1.0;"/><polygon fill="none" points="418.31,882.5,438.31,889.5,418.31,896.5,418.31,882.5" style="stroke: #A80036; stroke-width: 1.0;"/><polygon fill="#FBFB77" filter="url(#fwlbmv2)" points="365.25,852.5,365.25,877.5,412.25,877.5,412.25,862.5,402.25,852.5,365.25,852.5" style="stroke: #A80036; stroke-width: 1.0;"/><line style="stroke: #A80036; stroke-width: 1.0;" x1="402.25" x2="402.25" y1="852.5" y2="862.5"/><line style="stroke: #A80036; stroke-width: 1.0;" x1="412.25" x2="402.25" y1="862.5" y2="862.5"/><text fill="#000000" font-family="sans-serif" font-size="13" lengthAdjust="spacingAndGlyphs" textLength="26" x="371.25" y="870.0684">XOR</text><path d="M383.63,1024.5 C429.75,1024.5 502.75,1024.5 548.16,1024.5 " fill="none" style="stroke: #A80036; stroke-width: 1.0;"/><text fill="#000000" font-family="sans-serif" font-size="13" lengthAdjust="spacingAndGlyphs" textLength="76" x="421.5" y="1018.0684">responsable</text><polygon fill="#000000" points="500.5,1011.6553,506.5,1014.6553,500.5,1017.6553,500.5,1011.6553" style="stroke: #000000; stroke-width: 1.0;"/><text fill="#000000" font-family="sans-serif" font-size="13" lengthAdjust="spacingAndGlyphs" textLength="8" x="391.6445" y="1020.8098">1</text><text fill="#000000" font-family="sans-serif" font-size="13" lengthAdjust="spacingAndGlyphs" textLength="26" x="514.5887" y="1021.0387">0..N</text><path d="M517.28,1184.5 C540.44,1184.5 563.6,1184.5 586.76,1184.5 " fill="none" style="stroke: #A80036; stroke-width: 1.0;"/><path d="M591.5,1184.5 C614.54,1184.5 637.58,1184.5 660.62,1184.5 " fill="none" style="stroke: #A80036; stroke-width: 1.0;"/><path d="M589,1075.37 C589,1117.91 589,1173.56 589,1182.32 " fill="none" style="stroke: #A80036; stroke-width: 1.0;"/><polygon fill="none" points="582,1075.22,589,1055.22,596,1075.22,582,1075.22" style="stroke: #A80036; stroke-width: 1.0;"/><polygon fill="#FBFB77" filter="url(#fwlbmv2)" points="594,1090,594,1115,641,1115,641,1100,631,1090,594,1090" style="stroke: #A80036; stroke-width: 1.0;"/><line style="stroke: #A80036; stroke-width: 1.0;" x1="631" x2="631" y1="1090" y2="1100"/><line style="stroke: #A80036; stroke-width: 1.0;" x1="641" x2="631" y1="1100" y2="1100"/><text fill="#000000" font-family="sans-serif" font-size="13" lengthAdjust="spacingAndGlyphs" textLength="26" x="600" y="1107.5684">XOR</text><path d="M433.84,748 C475.01,748 526.18,748 564.61,748 " fill="none" style="stroke: #A80036; stroke-width: 1.0;"/><text fill="#000000" font-family="sans-serif" font-size="13" lengthAdjust="spacingAndGlyphs" textLength="82" x="451.75" y="741.5684">fait remonter</text><polygon fill="#000000" points="536.75,735.1553,542.75,738.1553,536.75,741.1553,536.75,735.1553" style="stroke: #000000; stroke-width: 1.0;"/><text fill="#000000" font-family="sans-serif" font-size="13" lengthAdjust="spacingAndGlyphs" textLength="26" x="441.569" y="761.2782">1..N</text><text fill="#000000" font-family="sans-serif" font-size="13" lengthAdjust="spacingAndGlyphs" textLength="26" x="531.0205" y="761.4106">0..N</text><path d="M616.78,785.17 C610.39,840.05 598.35,943.33 592.44,993.98 " fill="none" style="stroke: #A80036; stroke-width: 1.0;"/><polygon fill="#000000" points="640,892,643,886,646,892,640,892" style="stroke: #000000; stroke-width: 1.0;"/><text fill="#000000" font-family="sans-serif" font-size="13" lengthAdjust="spacingAndGlyphs" textLength="67" x="611" y="907.5684">apporté au</text><text fill="#000000" font-family="sans-serif" font-size="13" lengthAdjust="spacingAndGlyphs" textLength="8" x="607.3672" y="805.4504">1</text><text fill="#000000" font-family="sans-serif" font-size="13" lengthAdjust="spacingAndGlyphs" textLength="26" x="564.3488" y="983.2704">0..N</text><path d="M613.96,481.13 C615.5,539.21 618.5,652.72 620.04,710.83 " fill="none" style="stroke: #A80036; stroke-width: 1.0;"/><polygon fill="#000000" points="649.5,613,652.5,607,655.5,613,649.5,613" style="stroke: #000000; stroke-width: 1.0;"/><text fill="#000000" font-family="sans-serif" font-size="13" lengthAdjust="spacingAndGlyphs" textLength="70" x="619" y="628.5684">detecte sur</text><text fill="#000000" font-family="sans-serif" font-size="13" lengthAdjust="spacingAndGlyphs" textLength="8" x="605.4375" y="501.4035">1</text><text fill="#000000" font-family="sans-serif" font-size="13" lengthAdjust="spacingAndGlyphs" textLength="26" x="591.4661" y="700.1992">0..N</text><path d="M543.64,267.32 C560.67,310.46 583.92,369.33 598.7,406.77 " fill="none" style="stroke: #A80036; stroke-width: 1.0;"/><polygon fill="#A80036" points="538.8,255.05,537.2828,262.0997,543.2066,266.2116,544.7238,259.1619,538.8,255.05" style="stroke: #A80036; stroke-width: 1.0;"/><text fill="#000000" font-family="sans-serif" font-size="13" lengthAdjust="spacingAndGlyphs" textLength="26" x="567.6666" y="396.1282">1..N</text><path d="M505.4,255.04 C472.39,339.63 401.1,522.3 394.49,539.23 " fill="none" style="stroke: #A80036; stroke-width: 1.0;"/><polygon fill="#000000" points="498,349,501,343,504,349,498,349" style="stroke: #000000; stroke-width: 1.0;"/><text fill="#000000" font-family="sans-serif" font-size="13" lengthAdjust="spacingAndGlyphs" textLength="41" x="482" y="364.5684">achète</text><text fill="#000000" font-family="sans-serif" font-size="13" lengthAdjust="spacingAndGlyphs" textLength="26" x="474.8675" y="275.458">1..N</text><path d="M393.8,543.81 C391.9,556.32 376.82,655.82 368.49,710.79 " fill="none" style="stroke: #A80036; stroke-width: 1.0;"/><text fill="#000000" font-family="sans-serif" font-size="13" lengthAdjust="spacingAndGlyphs" textLength="26" x="341.1053" y="700.1519">0..N</text><path d="M322.91,541.5 C345.86,541.5 368.82,541.5 391.78,541.5 " fill="none" style="stroke: #A80036; stroke-width: 1.0; stroke-dasharray: 7.0,7.0;"/><path d="M743.92,69.11 C739.75,78.63 735.14,89.25 731,99 C711.68,144.49 688.89,200.87 685.44,209.4 " fill="none" style="stroke: #A80036; stroke-width: 1.0;"/><path d="M685.49,213.99 C688.96,224.47 709.81,287.49 721.34,322.35 " fill="none" style="stroke: #A80036; stroke-width: 1.0;"/><path d="M607.62,211.5 C641.18,211.5 673.82,211.5 682.66,211.5 " fill="none" style="stroke: #A80036; stroke-width: 1.0;"/><polygon fill="none" points="607.36,218.5,587.36,211.5,607.36,204.5,607.36,218.5" style="stroke: #A80036; stroke-width: 1.0;"/><polygon fill="#FBFB77" filter="url(#fwlbmv2)" points="609.5,174.5,609.5,199.5,656.5,199.5,656.5,184.5,646.5,174.5,609.5,174.5" style="stroke: #A80036; stroke-width: 1.0;"/><line style="stroke: #A80036; stroke-width: 1.0;" x1="646.5" x2="646.5" y1="174.5" y2="184.5"/><line style="stroke: #A80036; stroke-width: 1.0;" x1="656.5" x2="646.5" y1="184.5" y2="184.5"/><text fill="#000000" font-family="sans-serif" font-size="13" lengthAdjust="spacingAndGlyphs" textLength="26" x="615.5" y="192.0684">XOR</text><path d="M754.47,69.11 C750.48,115.4 742.44,207.73 735,286 C733.86,297.99 732.52,311.33 731.4,322.34 " fill="none" style="stroke: #A80036; stroke-width: 1.0;"/><text fill="#000000" font-family="sans-serif" font-size="13" lengthAdjust="spacingAndGlyphs" textLength="56" x="747" y="216.5684">supporte</text><polygon fill="#000000" points="770.5,225.3105,773.5,231.3105,776.5,225.3105,770.5,225.3105" style="stroke: #000000; stroke-width: 1.0;"/><text fill="#000000" font-family="sans-serif" font-size="13" lengthAdjust="spacingAndGlyphs" textLength="26" x="725.2669" y="89.5752">0..N</text><text fill="#000000" font-family="sans-serif" font-size="13" lengthAdjust="spacingAndGlyphs" textLength="26" x="702.6837" y="311.8353">1..N</text><path d="M752.74,346.5 C779.57,346.5 823.94,346.5 857.87,346.5 " fill="none" style="stroke: #A80036; stroke-width: 1.0;"/><text fill="#000000" font-family="sans-serif" font-size="13" lengthAdjust="spacingAndGlyphs" textLength="56" x="770.75" y="340.0684">supporte</text><polygon fill="#000000" points="829.75,333.6553,835.75,336.6553,829.75,339.6553,829.75,333.6553" style="stroke: #000000; stroke-width: 1.0;"/><text fill="#000000" font-family="sans-serif" font-size="13" lengthAdjust="spacingAndGlyphs" textLength="26" x="760.3176" y="360.6473">1..N</text><text fill="#000000" font-family="sans-serif" font-size="13" lengthAdjust="spacingAndGlyphs" textLength="26" x="824.1658" y="360.0521">1..N</text><path d="M959.28,211.5 C982.44,211.5 1005.6,211.5 1028.76,211.5 " fill="none" style="stroke: #A80036; stroke-width: 1.0;"/><path d="M1033.27,211.5 C1056.46,211.5 1079.65,211.5 1102.84,211.5 " fill="none" style="stroke: #A80036; stroke-width: 1.0;"/><path d="M824.42,75.7 C868.73,100.25 927.46,134.27 977,168 C999.09,183.04 1023.87,204.3 1029.72,209.38 " fill="none" style="stroke: #A80036; stroke-width: 1.0;"/><polygon fill="none" points="820.84,81.72,806.69,65.95,827.59,69.45,820.84,81.72" style="stroke: #A80036; stroke-width: 1.0;"/><polygon fill="#FBFB77" filter="url(#fwlbmv2)" points="935,104,935,129,982,129,982,114,972,104,935,104" style="stroke: #A80036; stroke-width: 1.0;"/><line style="stroke: #A80036; stroke-width: 1.0;" x1="972" x2="972" y1="104" y2="114"/><line style="stroke: #A80036; stroke-width: 1.0;" x1="982" x2="972" y1="114" y2="114"/><text fill="#000000" font-family="sans-serif" font-size="13" lengthAdjust="spacingAndGlyphs" textLength="26" x="941" y="121.5684">XOR</text><path d="M806.52,38.5 C827.9,38.5 853.19,38.5 875.97,38.5 " fill="none" style="stroke: #A80036; stroke-width: 1.0;"/><text fill="#000000" font-family="sans-serif" font-size="13" lengthAdjust="spacingAndGlyphs" textLength="19" x="825.25" y="32.0684">est</text><polygon fill="#000000" points="847.25,25.6553,853.25,28.6553,847.25,31.6553,847.25,25.6553" style="stroke: #000000; stroke-width: 1.0;"/><text fill="#000000" font-family="sans-serif" font-size="13" lengthAdjust="spacingAndGlyphs" textLength="26" x="814.5304" y="52.0521">0..N</text><text fill="#000000" font-family="sans-serif" font-size="13" lengthAdjust="spacingAndGlyphs" textLength="26" x="842.4213" y="61.5353">1..N</text></g></svg>