<?xml version="1.0" encoding="UTF-8" standalone="no"?><svg xmlns="http://www.w3.org/2000/svg" xmlns:xlink="http://www.w3.org/1999/xlink" contentScriptType="application/ecmascript" contentStyleType="text/css" height="1347px" preserveAspectRatio="none" style="width:1175px;height:1347px;" version="1.1" viewBox="0 0 1175 1347" width="1175px" zoomAndPan="magnify"><defs><filter height="300%" id="fjjw0s8" width="300%" x="-1" y="-1"><feGaussianBlur result="blurOut" stdDeviation="2.0"/><feColorMatrix in="blurOut" result="blurOut2" type="matrix" values="0 0 0 0 0 0 0 0 0 0 0 0 0 0 0 0 0 0 .4 0"/><feOffset dx="4.0" dy="4.0" in="blurOut2" result="blurOut3"/><feBlend in="SourceGraphic" in2="blurOut3" mode="normal"/></filter></defs><g><!--class Logiciel--><rect fill="#FEFECE" filter="url(#fjjw0s8)" height="86.8652" style="stroke: #A80036; stroke-width: 1.5;" width="130" x="470.5" y="168"/><ellipse cx="510.7" cy="184" fill="#A9DCDF" rx="11" ry="11" style="stroke: #A80036; stroke-width: 1.0;"/><path d="M510.8133,179.5981 L509.6595,184.6699 L511.9754,184.6699 Z M509.3191,177.3569 L512.3157,177.3569 L515.6609,189.75 L513.2122,189.75 L512.4485,186.687 L509.1697,186.687 L508.4227,189.75 L505.9739,189.75 Z "/><text fill="#000000" font-family="sans-serif" font-size="12" font-style="italic" lengthAdjust="spacingAndGlyphs" textLength="42" x="530.3" y="188.5352">Logiciel</text><line style="stroke: #A80036; stroke-width: 1.5;" x1="471.5" x2="599.5" y1="200" y2="200"/><text fill="#000000" font-family="sans-serif" font-size="11" lengthAdjust="spacingAndGlyphs" textLength="118" x="476.5" y="214.6348">NomDeve: string {key}</text><text fill="#000000" font-family="sans-serif" font-size="11" lengthAdjust="spacingAndGlyphs" textLength="92" x="476.5" y="227.5898">Nom: string {key}</text><text fill="#000000" font-family="sans-serif" font-size="11" lengthAdjust="spacingAndGlyphs" textLength="111" x="476.5" y="240.5449">DateLancement: date</text><line style="stroke: #A80036; stroke-width: 1.5;" x1="471.5" x2="599.5" y1="246.8652" y2="246.8652"/><!--class Version--><rect fill="#FEFECE" filter="url(#fjjw0s8)" height="73.9102" style="stroke: #A80036; stroke-width: 1.5;" width="132" x="554.5" y="407"/><ellipse cx="595.15" cy="423" fill="#ADD1B2" rx="11" ry="11" style="stroke: #A80036; stroke-width: 1.0;"/><path d="M597.6231,429.1431 Q597.0421,429.4419 596.4029,429.5913 Q595.7638,429.7407 595.0582,429.7407 Q592.5514,429.7407 591.2315,428.0889 Q589.9117,426.437 589.9117,423.3159 Q589.9117,420.1865 591.2315,418.5347 Q592.5514,416.8828 595.0582,416.8828 Q595.7638,416.8828 596.4112,417.0322 Q597.0587,417.1816 597.6231,417.4805 L597.6231,420.2031 Q596.9923,419.6221 596.3988,419.3523 Q595.8053,419.0825 595.1744,419.0825 Q593.8297,419.0825 593.1449,420.1492 Q592.4601,421.2158 592.4601,423.3159 Q592.4601,425.4077 593.1449,426.4744 Q593.8297,427.541 595.1744,427.541 Q595.8053,427.541 596.3988,427.2712 Q596.9923,427.0015 597.6231,426.4204 Z "/><text fill="#000000" font-family="sans-serif" font-size="12" lengthAdjust="spacingAndGlyphs" textLength="43" x="614.85" y="427.5352">Version</text><line style="stroke: #A80036; stroke-width: 1.5;" x1="555.5" x2="685.5" y1="439" y2="439"/><text fill="#000000" font-family="sans-serif" font-size="11" lengthAdjust="spacingAndGlyphs" textLength="120" x="560.5" y="453.6348">Numéro: int {local key}</text><text fill="#000000" font-family="sans-serif" font-size="11" lengthAdjust="spacingAndGlyphs" textLength="120" x="560.5" y="466.5898">DateDisponibilité: date</text><line style="stroke: #A80036; stroke-width: 1.5;" x1="555.5" x2="685.5" y1="472.9102" y2="472.9102"/><!--class Problème--><rect fill="#FEFECE" filter="url(#fjjw0s8)" height="73.9102" style="stroke: #A80036; stroke-width: 1.5;" width="112" x="592.5" y="711"/><ellipse cx="618.75" cy="727" fill="#ADD1B2" rx="11" ry="11" style="stroke: #A80036; stroke-width: 1.0;"/><path d="M621.2231,733.1431 Q620.6421,733.4419 620.0029,733.5913 Q619.3638,733.7407 618.6582,733.7407 Q616.1514,733.7407 614.8315,732.0889 Q613.5117,730.437 613.5117,727.3159 Q613.5117,724.1865 614.8315,722.5347 Q616.1514,720.8828 618.6582,720.8828 Q619.3638,720.8828 620.0112,721.0322 Q620.6587,721.1816 621.2231,721.4805 L621.2231,724.2031 Q620.5923,723.6221 619.9988,723.3523 Q619.4053,723.0825 618.7744,723.0825 Q617.4297,723.0825 616.7449,724.1492 Q616.0601,725.2158 616.0601,727.3159 Q616.0601,729.4077 616.7449,730.4744 Q617.4297,731.541 618.7744,731.541 Q619.4053,731.541 619.9988,731.2712 Q620.5923,731.0015 621.2231,730.4204 Z "/><text fill="#000000" font-family="sans-serif" font-size="12" lengthAdjust="spacingAndGlyphs" textLength="55" x="635.25" y="731.5352">Problème</text><line style="stroke: #A80036; stroke-width: 1.5;" x1="593.5" x2="703.5" y1="743" y2="743"/><text fill="#000000" font-family="sans-serif" font-size="11" lengthAdjust="spacingAndGlyphs" textLength="53" x="598.5" y="757.6348">Date: date</text><text fill="#000000" font-family="sans-serif" font-size="11" lengthAdjust="spacingAndGlyphs" textLength="100" x="598.5" y="770.5898">Description: string</text><line style="stroke: #A80036; stroke-width: 1.5;" x1="593.5" x2="703.5" y1="776.9102" y2="776.9102"/><!--class Correctif--><rect fill="#FEFECE" filter="url(#fjjw0s8)" height="60.9551" style="stroke: #A80036; stroke-width: 1.5;" width="81" x="605" y="1118"/><ellipse cx="620" cy="1134" fill="#A9DCDF" rx="11" ry="11" style="stroke: #A80036; stroke-width: 1.0;"/><path d="M620.1133,1129.5981 L618.9595,1134.6699 L621.2754,1134.6699 Z M618.6191,1127.3569 L621.6157,1127.3569 L624.9609,1139.75 L622.5122,1139.75 L621.7485,1136.687 L618.4697,1136.687 L617.7227,1139.75 L615.2739,1139.75 Z "/><text fill="#000000" font-family="sans-serif" font-size="12" font-style="italic" lengthAdjust="spacingAndGlyphs" textLength="49" x="634" y="1138.5352">Correctif</text><line style="stroke: #A80036; stroke-width: 1.5;" x1="606" x2="685" y1="1150" y2="1150"/><text fill="#000000" font-family="sans-serif" font-size="11" lengthAdjust="spacingAndGlyphs" textLength="53" x="611" y="1164.6348">Date: date</text><line style="stroke: #A80036; stroke-width: 1.5;" x1="606" x2="685" y1="1170.9551" y2="1170.9551"/><!--class InstructionTextuelle--><rect fill="#FEFECE" filter="url(#fjjw0s8)" height="60.9551" style="stroke: #A80036; stroke-width: 1.5;" width="144" x="429.5" y="1278"/><ellipse cx="444.5" cy="1294" fill="#ADD1B2" rx="11" ry="11" style="stroke: #A80036; stroke-width: 1.0;"/><path d="M446.9731,1300.1431 Q446.3921,1300.4419 445.7529,1300.5913 Q445.1138,1300.7407 444.4082,1300.7407 Q441.9014,1300.7407 440.5815,1299.0889 Q439.2617,1297.437 439.2617,1294.3159 Q439.2617,1291.1865 440.5815,1289.5347 Q441.9014,1287.8828 444.4082,1287.8828 Q445.1138,1287.8828 445.7612,1288.0322 Q446.4087,1288.1816 446.9731,1288.4805 L446.9731,1291.2031 Q446.3423,1290.6221 445.7488,1290.3523 Q445.1553,1290.0825 444.5244,1290.0825 Q443.1797,1290.0825 442.4949,1291.1492 Q441.8101,1292.2158 441.8101,1294.3159 Q441.8101,1296.4077 442.4949,1297.4744 Q443.1797,1298.541 444.5244,1298.541 Q445.1553,1298.541 445.7488,1298.2712 Q446.3423,1298.0015 446.9731,1297.4204 Z "/><text fill="#000000" font-family="sans-serif" font-size="12" lengthAdjust="spacingAndGlyphs" textLength="112" x="458.5" y="1298.5352">InstructionTextuelle</text><line style="stroke: #A80036; stroke-width: 1.5;" x1="430.5" x2="572.5" y1="1310" y2="1310"/><text fill="#000000" font-family="sans-serif" font-size="11" lengthAdjust="spacingAndGlyphs" textLength="97" x="435.5" y="1324.6348">Instruction: string</text><line style="stroke: #A80036; stroke-width: 1.5;" x1="430.5" x2="572.5" y1="1330.9551" y2="1330.9551"/><!--class PatchCorrectif--><rect fill="#FEFECE" filter="url(#fjjw0s8)" height="60.9551" style="stroke: #A80036; stroke-width: 1.5;" width="112" x="717.5" y="1278"/><ellipse cx="732.5" cy="1294" fill="#ADD1B2" rx="11" ry="11" style="stroke: #A80036; stroke-width: 1.0;"/><path d="M734.9731,1300.1431 Q734.3921,1300.4419 733.7529,1300.5913 Q733.1138,1300.7407 732.4082,1300.7407 Q729.9014,1300.7407 728.5815,1299.0889 Q727.2617,1297.437 727.2617,1294.3159 Q727.2617,1291.1865 728.5815,1289.5347 Q729.9014,1287.8828 732.4082,1287.8828 Q733.1138,1287.8828 733.7612,1288.0322 Q734.4087,1288.1816 734.9731,1288.4805 L734.9731,1291.2031 Q734.3423,1290.6221 733.7488,1290.3523 Q733.1553,1290.0825 732.5244,1290.0825 Q731.1797,1290.0825 730.4949,1291.1492 Q729.8101,1292.2158 729.8101,1294.3159 Q729.8101,1296.4077 730.4949,1297.4744 Q731.1797,1298.541 732.5244,1298.541 Q733.1553,1298.541 733.7488,1298.2712 Q734.3423,1298.0015 734.9731,1297.4204 Z "/><text fill="#000000" font-family="sans-serif" font-size="12" lengthAdjust="spacingAndGlyphs" textLength="80" x="746.5" y="1298.5352">PatchCorrectif</text><line style="stroke: #A80036; stroke-width: 1.5;" x1="718.5" x2="828.5" y1="1310" y2="1310"/><text fill="#000000" font-family="sans-serif" font-size="11" lengthAdjust="spacingAndGlyphs" textLength="84" x="723.5" y="1324.6348">ID: integer {key}</text><line style="stroke: #A80036; stroke-width: 1.5;" x1="718.5" x2="828.5" y1="1330.9551" y2="1330.9551"/><!--class Personne--><rect fill="#FEFECE" filter="url(#fjjw0s8)" height="86.8652" style="stroke: #A80036; stroke-width: 1.5;" width="119" x="466" y="908"/><ellipse cx="496.3" cy="924" fill="#A9DCDF" rx="11" ry="11" style="stroke: #A80036; stroke-width: 1.0;"/><path d="M496.4133,919.5981 L495.2595,924.6699 L497.5754,924.6699 Z M494.9191,917.3569 L497.9157,917.3569 L501.2609,929.75 L498.8122,929.75 L498.0485,926.687 L494.7697,926.687 L494.0227,929.75 L491.5739,929.75 Z "/><text fill="#000000" font-family="sans-serif" font-size="12" font-style="italic" lengthAdjust="spacingAndGlyphs" textLength="53" x="513.7" y="928.5352">Personne</text><line style="stroke: #A80036; stroke-width: 1.5;" x1="467" x2="584" y1="940" y2="940"/><text fill="#000000" font-family="sans-serif" font-size="11" lengthAdjust="spacingAndGlyphs" textLength="63" x="472" y="954.6348">Nom: string</text><text fill="#000000" font-family="sans-serif" font-size="11" lengthAdjust="spacingAndGlyphs" textLength="79" x="472" y="967.5898">Prénom: string</text><text fill="#000000" font-family="sans-serif" font-size="11" lengthAdjust="spacingAndGlyphs" textLength="107" x="472" y="980.5449">DateNaissance: date</text><line style="stroke: #A80036; stroke-width: 1.5;" x1="467" x2="584" y1="986.8652" y2="986.8652"/><!--class Employé--><rect fill="#FEFECE" filter="url(#fjjw0s8)" height="60.9551" style="stroke: #A80036; stroke-width: 1.5;" width="85" x="355" y="1118"/><ellipse cx="371.8" cy="1134" fill="#ADD1B2" rx="11" ry="11" style="stroke: #A80036; stroke-width: 1.0;"/><path d="M374.2731,1140.1431 Q373.6921,1140.4419 373.0529,1140.5913 Q372.4138,1140.7407 371.7082,1140.7407 Q369.2014,1140.7407 367.8815,1139.0889 Q366.5617,1137.437 366.5617,1134.3159 Q366.5617,1131.1865 367.8815,1129.5347 Q369.2014,1127.8828 371.7082,1127.8828 Q372.4138,1127.8828 373.0612,1128.0322 Q373.7087,1128.1816 374.2731,1128.4805 L374.2731,1131.2031 Q373.6423,1130.6221 373.0488,1130.3523 Q372.4553,1130.0825 371.8244,1130.0825 Q370.4797,1130.0825 369.7949,1131.1492 Q369.1101,1132.2158 369.1101,1134.3159 Q369.1101,1136.4077 369.7949,1137.4744 Q370.4797,1138.541 371.8244,1138.541 Q372.4553,1138.541 373.0488,1138.2712 Q373.6423,1138.0015 374.2731,1137.4204 Z "/><text fill="#000000" font-family="sans-serif" font-size="12" lengthAdjust="spacingAndGlyphs" textLength="49" x="386.2" y="1138.5352">Employé</text><line style="stroke: #A80036; stroke-width: 1.5;" x1="356" x2="439" y1="1150" y2="1150"/><text fill="#000000" font-family="sans-serif" font-size="11" lengthAdjust="spacingAndGlyphs" textLength="73" x="361" y="1164.6348">Poste: integer</text><line style="stroke: #A80036; stroke-width: 1.5;" x1="356" x2="439" y1="1170.9551" y2="1170.9551"/><polygon fill="#FBFB77" filter="url(#fjjw0s8)" points="6,1136,6,1161.3105,285,1161.3105,285,1146,275,1136,6,1136" style="stroke: #A80036; stroke-width: 1.0;"/><polygon fill="#FBFB77" points="6,1136,6,1161.3105,285,1161.3105,285,1154,354.98,1148.5,285,1146,285,1146,275,1136,6,1136" style="stroke: #A80036; stroke-width: 1.0;"/><line style="stroke: #A80036; stroke-width: 1.0;" x1="275" x2="275" y1="1136" y2="1146"/><line style="stroke: #A80036; stroke-width: 1.0;" x1="285" x2="275" y1="1146" y2="1146"/><text fill="#000000" font-family="sans-serif" font-size="13" lengthAdjust="spacingAndGlyphs" textLength="258" x="12" y="1153.5684">{(Nom,Prénom,DateNaissance,Poste) key}</text><!--class Client--><rect fill="#FEFECE" filter="url(#fjjw0s8)" height="73.9102" style="stroke: #A80036; stroke-width: 1.5;" width="141" x="320" y="711"/><ellipse cx="370.25" cy="727" fill="#ADD1B2" rx="11" ry="11" style="stroke: #A80036; stroke-width: 1.0;"/><path d="M372.7231,733.1431 Q372.1421,733.4419 371.5029,733.5913 Q370.8638,733.7407 370.1582,733.7407 Q367.6514,733.7407 366.3315,732.0889 Q365.0117,730.437 365.0117,727.3159 Q365.0117,724.1865 366.3315,722.5347 Q367.6514,720.8828 370.1582,720.8828 Q370.8638,720.8828 371.5112,721.0322 Q372.1587,721.1816 372.7231,721.4805 L372.7231,724.2031 Q372.0923,723.6221 371.4988,723.3523 Q370.9053,723.0825 370.2744,723.0825 Q368.9297,723.0825 368.2449,724.1492 Q367.5601,725.2158 367.5601,727.3159 Q367.5601,729.4077 368.2449,730.4744 Q368.9297,731.541 370.2744,731.541 Q370.9053,731.541 371.4988,731.2712 Q372.0923,731.0015 372.7231,730.4204 Z "/><text fill="#000000" font-family="sans-serif" font-size="12" lengthAdjust="spacingAndGlyphs" textLength="32" x="390.75" y="731.5352">Client</text><line style="stroke: #A80036; stroke-width: 1.5;" x1="321" x2="460" y1="743" y2="743"/><text fill="#000000" font-family="sans-serif" font-size="11" lengthAdjust="spacingAndGlyphs" textLength="82" x="326" y="757.6348">Adresse: string</text><text fill="#000000" font-family="sans-serif" font-size="11" lengthAdjust="spacingAndGlyphs" textLength="129" x="326" y="770.5898">Téléphone: integer {key}</text><line style="stroke: #A80036; stroke-width: 1.5;" x1="321" x2="460" y1="776.9102" y2="776.9102"/><!--class Achat--><rect fill="#FEFECE" filter="url(#fjjw0s8)" height="60.9551" style="stroke: #A80036; stroke-width: 1.5;" width="65" x="513" y="511"/><ellipse cx="528.45" cy="527" fill="#ADD1B2" rx="11" ry="11" style="stroke: #A80036; stroke-width: 1.0;"/><path d="M530.9231,533.1431 Q530.3421,533.4419 529.7029,533.5913 Q529.0638,533.7407 528.3582,533.7407 Q525.8514,533.7407 524.5315,532.0889 Q523.2117,530.437 523.2117,527.3159 Q523.2117,524.1865 524.5315,522.5347 Q525.8514,520.8828 528.3582,520.8828 Q529.0638,520.8828 529.7112,521.0322 Q530.3587,521.1816 530.9231,521.4805 L530.9231,524.2031 Q530.2923,523.6221 529.6988,523.3523 Q529.1053,523.0825 528.4744,523.0825 Q527.1297,523.0825 526.4449,524.1492 Q525.7601,525.2158 525.7601,527.3159 Q525.7601,529.4077 526.4449,530.4744 Q527.1297,531.541 528.4744,531.541 Q529.1053,531.541 529.6988,531.2712 Q530.2923,531.0015 530.9231,530.4204 Z "/><text fill="#000000" font-family="sans-serif" font-size="12" lengthAdjust="spacingAndGlyphs" textLength="32" x="542.55" y="531.5352">Achat</text><line style="stroke: #A80036; stroke-width: 1.5;" x1="514" x2="577" y1="543" y2="543"/><text fill="#000000" font-family="sans-serif" font-size="11" lengthAdjust="spacingAndGlyphs" textLength="53" x="519" y="557.6348">Date: date</text><line style="stroke: #A80036; stroke-width: 1.5;" x1="514" x2="577" y1="563.9551" y2="563.9551"/><polygon fill="#FBFB77" filter="url(#fjjw0s8)" points="685,529,685,554.3105,842,554.3105,842,539,832,529,685,529" style="stroke: #A80036; stroke-width: 1.0;"/><polygon fill="#FBFB77" points="685,529,685,537.5,578.29,541.5,685,545.5,685,554.3105,842,554.3105,842,539,832,529,685,529" style="stroke: #A80036; stroke-width: 1.0;"/><line style="stroke: #A80036; stroke-width: 1.0;" x1="832" x2="832" y1="529" y2="539"/><line style="stroke: #A80036; stroke-width: 1.0;" x1="842" x2="832" y1="539" y2="539"/><text fill="#000000" font-family="sans-serif" font-size="13" lengthAdjust="spacingAndGlyphs" textLength="136" x="691" y="546.5684">Date&gt;DateLancement</text><!--class OS--><rect fill="#FEFECE" filter="url(#fjjw0s8)" height="48" style="stroke: #A80036; stroke-width: 1.5;" width="47" x="719" y="322.5"/><ellipse cx="734" cy="338.5" fill="#ADD1B2" rx="11" ry="11" style="stroke: #A80036; stroke-width: 1.0;"/><path d="M736.4731,344.6431 Q735.8921,344.9419 735.2529,345.0913 Q734.6138,345.2407 733.9082,345.2407 Q731.4014,345.2407 730.0815,343.5889 Q728.7617,341.937 728.7617,338.8159 Q728.7617,335.6865 730.0815,334.0347 Q731.4014,332.3828 733.9082,332.3828 Q734.6138,332.3828 735.2612,332.5322 Q735.9087,332.6816 736.4731,332.9805 L736.4731,335.7031 Q735.8423,335.1221 735.2488,334.8523 Q734.6553,334.5825 734.0244,334.5825 Q732.6797,334.5825 731.9949,335.6492 Q731.3101,336.7158 731.3101,338.8159 Q731.3101,340.9077 731.9949,341.9744 Q732.6797,343.041 734.0244,343.041 Q734.6553,343.041 735.2488,342.7712 Q735.8423,342.5015 736.4731,341.9204 Z "/><text fill="#000000" font-family="sans-serif" font-size="12" lengthAdjust="spacingAndGlyphs" textLength="15" x="748" y="343.0352">OS</text><line style="stroke: #A80036; stroke-width: 1.5;" x1="720" x2="765" y1="354.5" y2="354.5"/><line style="stroke: #A80036; stroke-width: 1.5;" x1="720" x2="765" y1="362.5" y2="362.5"/><!--class Programme--><rect fill="#FEFECE" filter="url(#fjjw0s8)" height="60.9551" style="stroke: #A80036; stroke-width: 1.5;" width="99" x="721" y="8"/><ellipse cx="736" cy="24" fill="#A9DCDF" rx="11" ry="11" style="stroke: #A80036; stroke-width: 1.0;"/><path d="M736.1133,19.5981 L734.9595,24.6699 L737.2754,24.6699 Z M734.6191,17.3569 L737.6157,17.3569 L740.9609,29.75 L738.5122,29.75 L737.7485,26.687 L734.4697,26.687 L733.7227,29.75 L731.2739,29.75 Z "/><text fill="#000000" font-family="sans-serif" font-size="12" font-style="italic" lengthAdjust="spacingAndGlyphs" textLength="67" x="750" y="28.5352">Programme</text><line style="stroke: #A80036; stroke-width: 1.5;" x1="722" x2="819" y1="40" y2="40"/><text fill="#000000" font-family="sans-serif" font-size="11" lengthAdjust="spacingAndGlyphs" textLength="64" x="727" y="54.6348">Type: string</text><line style="stroke: #A80036; stroke-width: 1.5;" x1="722" x2="819" y1="60.9551" y2="60.9551"/><!--class Application--><rect fill="#FEFECE" filter="url(#fjjw0s8)" height="48" style="stroke: #A80036; stroke-width: 1.5;" width="96" x="876.5" y="187.5"/><ellipse cx="891.5" cy="203.5" fill="#ADD1B2" rx="11" ry="11" style="stroke: #A80036; stroke-width: 1.0;"/><path d="M893.9731,209.6431 Q893.3921,209.9419 892.7529,210.0913 Q892.1138,210.2407 891.4082,210.2407 Q888.9014,210.2407 887.5815,208.5889 Q886.2617,206.937 886.2617,203.8159 Q886.2617,200.6865 887.5815,199.0347 Q888.9014,197.3828 891.4082,197.3828 Q892.1138,197.3828 892.7612,197.5322 Q893.4087,197.6816 893.9731,197.9805 L893.9731,200.7031 Q893.3423,200.1221 892.7488,199.8523 Q892.1553,199.5825 891.5244,199.5825 Q890.1797,199.5825 889.4949,200.6492 Q888.8101,201.7158 888.8101,203.8159 Q888.8101,205.9077 889.4949,206.9744 Q890.1797,208.041 891.5244,208.041 Q892.1553,208.041 892.7488,207.7712 Q893.3423,207.5015 893.9731,206.9204 Z "/><text fill="#000000" font-family="sans-serif" font-size="12" lengthAdjust="spacingAndGlyphs" textLength="64" x="905.5" y="208.0352">Application</text><line style="stroke: #A80036; stroke-width: 1.5;" x1="877.5" x2="971.5" y1="219.5" y2="219.5"/><line style="stroke: #A80036; stroke-width: 1.5;" x1="877.5" x2="971.5" y1="227.5" y2="227.5"/><!--class Jeu--><rect fill="#FEFECE" filter="url(#fjjw0s8)" height="48" style="stroke: #A80036; stroke-width: 1.5;" width="50" x="1116.5" y="187.5"/><ellipse cx="1131.5" cy="203.5" fill="#ADD1B2" rx="11" ry="11" style="stroke: #A80036; stroke-width: 1.0;"/><path d="M1133.9731,209.6431 Q1133.3921,209.9419 1132.7529,210.0913 Q1132.1138,210.2407 1131.4082,210.2407 Q1128.9014,210.2407 1127.5815,208.5889 Q1126.2617,206.937 1126.2617,203.8159 Q1126.2617,200.6865 1127.5815,199.0347 Q1128.9014,197.3828 1131.4082,197.3828 Q1132.1138,197.3828 1132.7612,197.5322 Q1133.4087,197.6816 1133.9731,197.9805 L1133.9731,200.7031 Q1133.3423,200.1221 1132.7488,199.8523 Q1132.1553,199.5825 1131.5244,199.5825 Q1130.1797,199.5825 1129.4949,200.6492 Q1128.8101,201.7158 1128.8101,203.8159 Q1128.8101,205.9077 1129.4949,206.9744 Q1130.1797,208.041 1131.5244,208.041 Q1132.1553,208.041 1132.7488,207.7712 Q1133.3423,207.5015 1133.9731,206.9204 Z "/><text fill="#000000" font-family="sans-serif" font-size="12" lengthAdjust="spacingAndGlyphs" textLength="18" x="1145.5" y="208.0352">Jeu</text><line style="stroke: #A80036; stroke-width: 1.5;" x1="1117.5" x2="1165.5" y1="219.5" y2="219.5"/><line style="stroke: #A80036; stroke-width: 1.5;" x1="1117.5" x2="1165.5" y1="227.5" y2="227.5"/><!--class Plateforme--><rect fill="#FEFECE" filter="url(#fjjw0s8)" height="60.9551" style="stroke: #A80036; stroke-width: 1.5;" width="266" x="871.5" y="316"/><ellipse cx="969.25" cy="332" fill="#ADD1B2" rx="11" ry="11" style="stroke: #A80036; stroke-width: 1.0;"/><path d="M971.7231,338.1431 Q971.1421,338.4419 970.5029,338.5913 Q969.8638,338.7407 969.1582,338.7407 Q966.6514,338.7407 965.3315,337.0889 Q964.0117,335.437 964.0117,332.3159 Q964.0117,329.1865 965.3315,327.5347 Q966.6514,325.8828 969.1582,325.8828 Q969.8638,325.8828 970.5112,326.0322 Q971.1587,326.1816 971.7231,326.4805 L971.7231,329.2031 Q971.0923,328.6221 970.4988,328.3523 Q969.9053,328.0825 969.2744,328.0825 Q967.9297,328.0825 967.2449,329.1492 Q966.5601,330.2158 966.5601,332.3159 Q966.5601,334.4077 967.2449,335.4744 Q967.9297,336.541 969.2744,336.541 Q969.9053,336.541 970.4988,336.2712 Q971.0923,336.0015 971.7231,335.4204 Z "/><text fill="#000000" font-family="sans-serif" font-size="12" lengthAdjust="spacingAndGlyphs" textLength="62" x="989.75" y="336.5352">Plateforme</text><line style="stroke: #A80036; stroke-width: 1.5;" x1="872.5" x2="1136.5" y1="348" y2="348"/><text fill="#000000" font-family="sans-serif" font-size="11" lengthAdjust="spacingAndGlyphs" textLength="254" x="877.5" y="362.6348">Type: enum {Smartphone, Tablette, PC, Serveur}</text><line style="stroke: #A80036; stroke-width: 1.5;" x1="872.5" x2="1136.5" y1="368.9551" y2="368.9551"/><ellipse cx="368.5" cy="951.5" fill="#000000" rx="2" ry="2" style="stroke: none; stroke-width: 1.0;"/><ellipse cx="645.5" cy="1308.5" fill="#000000" rx="2" ry="2" style="stroke: none; stroke-width: 1.0;"/><ellipse cx="441.5" cy="541.5" fill="#000000" rx="2" ry="2" style="stroke: none; stroke-width: 1.0;"/><ellipse cx="698.5" cy="211.5" fill="#000000" rx="2" ry="2" style="stroke: none; stroke-width: 1.0;"/><ellipse cx="1044.5" cy="211.5" fill="#000000" rx="2" ry="2" style="stroke: none; stroke-width: 1.0;"/><path d="M386.57,785.02 C380.63,839.36 369.95,937.25 368.63,949.28 " fill="none" style="stroke: #A80036; stroke-width: 1.0;"/><path d="M368.69,953.75 C370.52,966.07 385.5,1066.83 393.11,1117.96 " fill="none" style="stroke: #A80036; stroke-width: 1.0;"/><path d="M370.72,951.5 C379.43,951.5 412.46,951.5 445.79,951.5 " fill="none" style="stroke: #A80036; stroke-width: 1.0;"/><polygon fill="none" points="445.81,944.5,465.81,951.5,445.81,958.5,445.81,944.5" style="stroke: #A80036; stroke-width: 1.0;"/><polygon fill="#FBFB77" filter="url(#fjjw0s8)" points="392.75,914.5,392.75,939.5,439.75,939.5,439.75,924.5,429.75,914.5,392.75,914.5" style="stroke: #A80036; stroke-width: 1.0;"/><line style="stroke: #A80036; stroke-width: 1.0;" x1="429.75" x2="429.75" y1="914.5" y2="924.5"/><line style="stroke: #A80036; stroke-width: 1.0;" x1="439.75" x2="429.75" y1="924.5" y2="924.5"/><text fill="#000000" font-family="sans-serif" font-size="13" lengthAdjust="spacingAndGlyphs" textLength="26" x="398.75" y="932.0684">XOR</text><path d="M440.13,1148.5 C486.25,1148.5 559.25,1148.5 604.66,1148.5 " fill="none" style="stroke: #A80036; stroke-width: 1.0;"/><text fill="#000000" font-family="sans-serif" font-size="13" lengthAdjust="spacingAndGlyphs" textLength="76" x="478" y="1142.0684">responsable</text><polygon fill="#000000" points="557,1135.6553,563,1138.6553,557,1141.6553,557,1135.6553" style="stroke: #000000; stroke-width: 1.0;"/><text fill="#000000" font-family="sans-serif" font-size="13" lengthAdjust="spacingAndGlyphs" textLength="8" x="448.1445" y="1144.8098">1</text><text fill="#000000" font-family="sans-serif" font-size="13" lengthAdjust="spacingAndGlyphs" textLength="6" x="591.125" y="1144.8098">*</text><path d="M573.78,1308.5 C596.94,1308.5 620.1,1308.5 643.26,1308.5 " fill="none" style="stroke: #A80036; stroke-width: 1.0;"/><path d="M648,1308.5 C671.04,1308.5 694.08,1308.5 717.12,1308.5 " fill="none" style="stroke: #A80036; stroke-width: 1.0;"/><path d="M645.5,1199.37 C645.5,1241.91 645.5,1297.56 645.5,1306.32 " fill="none" style="stroke: #A80036; stroke-width: 1.0;"/><polygon fill="none" points="638.5,1199.22,645.5,1179.22,652.5,1199.22,638.5,1199.22" style="stroke: #A80036; stroke-width: 1.0;"/><polygon fill="#FBFB77" filter="url(#fjjw0s8)" points="650.5,1214,650.5,1239,697.5,1239,697.5,1224,687.5,1214,650.5,1214" style="stroke: #A80036; stroke-width: 1.0;"/><line style="stroke: #A80036; stroke-width: 1.0;" x1="687.5" x2="687.5" y1="1214" y2="1224"/><line style="stroke: #A80036; stroke-width: 1.0;" x1="697.5" x2="687.5" y1="1224" y2="1224"/><text fill="#000000" font-family="sans-serif" font-size="13" lengthAdjust="spacingAndGlyphs" textLength="26" x="656.5" y="1231.5684">XOR</text><path d="M461.34,748 C502.51,748 553.68,748 592.11,748 " fill="none" style="stroke: #A80036; stroke-width: 1.0;"/><text fill="#000000" font-family="sans-serif" font-size="13" lengthAdjust="spacingAndGlyphs" textLength="82" x="479.25" y="741.5684">fait remonter</text><polygon fill="#000000" points="564.25,735.1553,570.25,738.1553,564.25,741.1553,564.25,735.1553" style="stroke: #000000; stroke-width: 1.0;"/><text fill="#000000" font-family="sans-serif" font-size="13" lengthAdjust="spacingAndGlyphs" textLength="26" x="469.069" y="761.2782">1..N</text><text fill="#000000" font-family="sans-serif" font-size="13" lengthAdjust="spacingAndGlyphs" textLength="6" x="578.5007" y="744.6331">*</text><path d="M652.37,785.34 C653.99,803.54 655.5,825.91 655.5,846 C655.5,846 655.5,846 655.5,1057 C655.5,1077.39 652.96,1100.21 650.44,1117.84 " fill="none" style="stroke: #A80036; stroke-width: 1.0;"/><polygon fill="#000000" points="685.5,954,688.5,948,691.5,954,685.5,954" style="stroke: #000000; stroke-width: 1.0;"/><text fill="#000000" font-family="sans-serif" font-size="13" lengthAdjust="spacingAndGlyphs" textLength="67" x="656.5" y="969.5684">apporté au</text><text fill="#000000" font-family="sans-serif" font-size="13" lengthAdjust="spacingAndGlyphs" textLength="8" x="644.3485" y="805.3681">1</text><text fill="#000000" font-family="sans-serif" font-size="13" lengthAdjust="spacingAndGlyphs" textLength="6" x="644.8644" y="1107.0997">*</text><path d="M623.85,481.13 C629.24,539.21 639.76,652.72 645.15,710.83 " fill="none" style="stroke: #A80036; stroke-width: 1.0;"/><polygon fill="#000000" points="669,613,672,607,675,613,669,613" style="stroke: #000000; stroke-width: 1.0;"/><text fill="#000000" font-family="sans-serif" font-size="13" lengthAdjust="spacingAndGlyphs" textLength="70" x="638.5" y="628.5684">detecte sur</text><text fill="#000000" font-family="sans-serif" font-size="13" lengthAdjust="spacingAndGlyphs" textLength="8" x="615.7383" y="501.4035">1</text><text fill="#000000" font-family="sans-serif" font-size="13" lengthAdjust="spacingAndGlyphs" textLength="6" x="637.9792" y="700.1992">*</text><path d="M555.72,267.32 C571.62,310.46 593.33,369.33 607.14,406.77 " fill="none" style="stroke: #A80036; stroke-width: 1.0;"/><polygon fill="#A80036" points="551.19,255.05,549.5135,262.0635,555.3427,266.3085,557.0192,259.295,551.19,255.05" style="stroke: #A80036; stroke-width: 1.0;"/><text fill="#000000" font-family="sans-serif" font-size="13" lengthAdjust="spacingAndGlyphs" textLength="22" x="580.6486" y="396.1282">0.N</text><path d="M523.31,255.04 C499.07,339.63 446.72,522.3 441.86,539.23 " fill="none" style="stroke: #A80036; stroke-width: 1.0;"/><polygon fill="#000000" points="522.5,349,525.5,343,528.5,349,522.5,349" style="stroke: #000000; stroke-width: 1.0;"/><text fill="#000000" font-family="sans-serif" font-size="13" lengthAdjust="spacingAndGlyphs" textLength="41" x="506.5" y="364.5684">achète</text><text fill="#000000" font-family="sans-serif" font-size="13" lengthAdjust="spacingAndGlyphs" textLength="6" x="514.984" y="275.458">*</text><path d="M441.17,543.81 C438.05,556.32 413.24,655.82 399.53,710.79 " fill="none" style="stroke: #A80036; stroke-width: 1.0;"/><text fill="#000000" font-family="sans-serif" font-size="13" lengthAdjust="spacingAndGlyphs" textLength="26" x="372.798" y="700.1519">1..N</text><path d="M512.84,541.5 C489.74,541.5 466.63,541.5 443.53,541.5 " fill="none" style="stroke: #A80036; stroke-width: 1.0; stroke-dasharray: 7.0,7.0;"/><path d="M757.42,69.11 C753.25,78.63 748.64,89.25 744.5,99 C725.18,144.49 702.39,200.87 698.94,209.4 " fill="none" style="stroke: #A80036; stroke-width: 1.0;"/><path d="M698.99,213.99 C702.46,224.47 723.31,287.49 734.84,322.35 " fill="none" style="stroke: #A80036; stroke-width: 1.0;"/><path d="M621.12,211.5 C654.68,211.5 687.32,211.5 696.16,211.5 " fill="none" style="stroke: #A80036; stroke-width: 1.0;"/><polygon fill="none" points="620.86,218.5,600.86,211.5,620.86,204.5,620.86,218.5" style="stroke: #A80036; stroke-width: 1.0;"/><polygon fill="#FBFB77" filter="url(#fjjw0s8)" points="623,174.5,623,199.5,670,199.5,670,184.5,660,174.5,623,174.5" style="stroke: #A80036; stroke-width: 1.0;"/><line style="stroke: #A80036; stroke-width: 1.0;" x1="660" x2="660" y1="174.5" y2="184.5"/><line style="stroke: #A80036; stroke-width: 1.0;" x1="670" x2="660" y1="184.5" y2="184.5"/><text fill="#000000" font-family="sans-serif" font-size="13" lengthAdjust="spacingAndGlyphs" textLength="26" x="629" y="192.0684">XOR</text><path d="M767.97,69.11 C763.98,115.4 755.94,207.73 748.5,286 C747.36,297.99 746.02,311.33 744.9,322.34 " fill="none" style="stroke: #A80036; stroke-width: 1.0;"/><text fill="#000000" font-family="sans-serif" font-size="13" lengthAdjust="spacingAndGlyphs" textLength="56" x="760.5" y="216.5684">supporte</text><polygon fill="#000000" points="784,225.3105,787,231.3105,790,225.3105,784,225.3105" style="stroke: #000000; stroke-width: 1.0;"/><text fill="#000000" font-family="sans-serif" font-size="13" lengthAdjust="spacingAndGlyphs" textLength="6" x="760.8294" y="89.5752">*</text><text fill="#000000" font-family="sans-serif" font-size="13" lengthAdjust="spacingAndGlyphs" textLength="26" x="716.1837" y="311.8353">1..N</text><path d="M766.21,346.5 C790.65,346.5 830.78,346.5 871.2,346.5 " fill="none" style="stroke: #A80036; stroke-width: 1.0;"/><text fill="#000000" font-family="sans-serif" font-size="13" lengthAdjust="spacingAndGlyphs" textLength="56" x="784.25" y="340.0684">supporte</text><polygon fill="#000000" points="843.25,333.6553,849.25,336.6553,843.25,339.6553,843.25,333.6553" style="stroke: #000000; stroke-width: 1.0;"/><text fill="#000000" font-family="sans-serif" font-size="13" lengthAdjust="spacingAndGlyphs" textLength="26" x="773.7814" y="360.6473">1..N</text><text fill="#000000" font-family="sans-serif" font-size="13" lengthAdjust="spacingAndGlyphs" textLength="26" x="837.6564" y="359.4642">1..N</text><path d="M972.78,211.5 C995.94,211.5 1019.1,211.5 1042.26,211.5 " fill="none" style="stroke: #A80036; stroke-width: 1.0;"/><path d="M1046.77,211.5 C1069.96,211.5 1093.15,211.5 1116.34,211.5 " fill="none" style="stroke: #A80036; stroke-width: 1.0;"/><path d="M837.92,75.7 C882.23,100.25 940.96,134.27 990.5,168 C1012.59,183.04 1037.37,204.3 1043.22,209.38 " fill="none" style="stroke: #A80036; stroke-width: 1.0;"/><polygon fill="none" points="834.34,81.72,820.19,65.95,841.09,69.45,834.34,81.72" style="stroke: #A80036; stroke-width: 1.0;"/><polygon fill="#FBFB77" filter="url(#fjjw0s8)" points="948.5,104,948.5,129,995.5,129,995.5,114,985.5,104,948.5,104" style="stroke: #A80036; stroke-width: 1.0;"/><line style="stroke: #A80036; stroke-width: 1.0;" x1="985.5" x2="985.5" y1="104" y2="114"/><line style="stroke: #A80036; stroke-width: 1.0;" x1="995.5" x2="985.5" y1="114" y2="114"/><text fill="#000000" font-family="sans-serif" font-size="13" lengthAdjust="spacingAndGlyphs" textLength="26" x="954.5" y="121.5684">XOR</text></g></svg>